<?xml version="1.0" encoding="utf-8" standalone="no"?>
<!DOCTYPE svg PUBLIC "-//W3C//DTD SVG 1.1//EN"
  "http://www.w3.org/Graphics/SVG/1.1/DTD/svg11.dtd">
<!-- Created with matplotlib (https://matplotlib.org/) -->
<svg height="360pt" version="1.1" viewBox="0 0 216 360" width="216pt" xmlns="http://www.w3.org/2000/svg" xmlns:xlink="http://www.w3.org/1999/xlink">
 <metadata>
  <rdf:RDF xmlns:cc="http://creativecommons.org/ns#" xmlns:dc="http://purl.org/dc/elements/1.1/" xmlns:rdf="http://www.w3.org/1999/02/22-rdf-syntax-ns#">
   <cc:Work>
    <dc:type rdf:resource="http://purl.org/dc/dcmitype/StillImage"/>
    <dc:date>2020-08-29T22:44:44.519083</dc:date>
    <dc:format>image/svg+xml</dc:format>
    <dc:creator>
     <cc:Agent>
      <dc:title>Matplotlib v3.3.0, https://matplotlib.org/</dc:title>
     </cc:Agent>
    </dc:creator>
   </cc:Work>
  </rdf:RDF>
 </metadata>
 <defs>
  <style type="text/css">*{stroke-linecap:butt;stroke-linejoin:round;}</style>
 </defs>
 <g id="figure_1">
  <g id="patch_1">
   <path d="M 0 360 
L 216 360 
L 216 0 
L 0 0 
z
" style="fill:#ffffff;"/>
  </g>
  <g id="axes_1">
   <g id="patch_2">
    <path d="M 10.8 332.12 
L 188.57 332.12 
L 188.57 10.8 
L 10.8 10.8 
z
" style="fill:#ffffff;"/>
   </g>
   <g id="matplotlib.axis_1">
    <g id="xtick_1">
     <g id="line2d_1">
      <defs>
       <path d="M 0 0 
L 0 3.5 
" id="maf55e7a6cc" style="stroke:#000000;stroke-width:0.8;"/>
      </defs>
      <g>
       <use style="stroke:#000000;stroke-width:0.8;" x="188.57" xlink:href="#maf55e7a6cc" y="332.12"/>
      </g>
     </g>
     <g id="text_1">
      <!-- 0.0 -->
      <g transform="translate(180.618437 346.718437)scale(0.1 -0.1)">
       <defs>
        <path d="M 31.78125 66.40625 
Q 24.171875 66.40625 20.328125 58.90625 
Q 16.5 51.421875 16.5 36.375 
Q 16.5 21.390625 20.328125 13.890625 
Q 24.171875 6.390625 31.78125 6.390625 
Q 39.453125 6.390625 43.28125 13.890625 
Q 47.125 21.390625 47.125 36.375 
Q 47.125 51.421875 43.28125 58.90625 
Q 39.453125 66.40625 31.78125 66.40625 
z
M 31.78125 74.21875 
Q 44.046875 74.21875 50.515625 64.515625 
Q 56.984375 54.828125 56.984375 36.375 
Q 56.984375 17.96875 50.515625 8.265625 
Q 44.046875 -1.421875 31.78125 -1.421875 
Q 19.53125 -1.421875 13.0625 8.265625 
Q 6.59375 17.96875 6.59375 36.375 
Q 6.59375 54.828125 13.0625 64.515625 
Q 19.53125 74.21875 31.78125 74.21875 
z
" id="DejaVuSans-48"/>
        <path d="M 10.6875 12.40625 
L 21 12.40625 
L 21 0 
L 10.6875 0 
z
" id="DejaVuSans-46"/>
       </defs>
       <use xlink:href="#DejaVuSans-48"/>
       <use x="63.623047" xlink:href="#DejaVuSans-46"/>
       <use x="95.410156" xlink:href="#DejaVuSans-48"/>
      </g>
     </g>
    </g>
    <g id="xtick_2">
     <g id="line2d_2">
      <g>
       <use style="stroke:#000000;stroke-width:0.8;" x="135.986881" xlink:href="#maf55e7a6cc" y="332.12"/>
      </g>
     </g>
     <g id="text_2">
      <!-- 0.2 -->
      <g transform="translate(128.035318 346.718437)scale(0.1 -0.1)">
       <defs>
        <path d="M 19.1875 8.296875 
L 53.609375 8.296875 
L 53.609375 0 
L 7.328125 0 
L 7.328125 8.296875 
Q 12.9375 14.109375 22.625 23.890625 
Q 32.328125 33.6875 34.8125 36.53125 
Q 39.546875 41.84375 41.421875 45.53125 
Q 43.3125 49.21875 43.3125 52.78125 
Q 43.3125 58.59375 39.234375 62.25 
Q 35.15625 65.921875 28.609375 65.921875 
Q 23.96875 65.921875 18.8125 64.3125 
Q 13.671875 62.703125 7.8125 59.421875 
L 7.8125 69.390625 
Q 13.765625 71.78125 18.9375 73 
Q 24.125 74.21875 28.421875 74.21875 
Q 39.75 74.21875 46.484375 68.546875 
Q 53.21875 62.890625 53.21875 53.421875 
Q 53.21875 48.921875 51.53125 44.890625 
Q 49.859375 40.875 45.40625 35.40625 
Q 44.1875 33.984375 37.640625 27.21875 
Q 31.109375 20.453125 19.1875 8.296875 
z
" id="DejaVuSans-50"/>
       </defs>
       <use xlink:href="#DejaVuSans-48"/>
       <use x="63.623047" xlink:href="#DejaVuSans-46"/>
       <use x="95.410156" xlink:href="#DejaVuSans-50"/>
      </g>
     </g>
    </g>
    <g id="xtick_3">
     <g id="line2d_3">
      <g>
       <use style="stroke:#000000;stroke-width:0.8;" x="83.403761" xlink:href="#maf55e7a6cc" y="332.12"/>
      </g>
     </g>
     <g id="text_3">
      <!-- 0.4 -->
      <g transform="translate(75.452199 346.718437)scale(0.1 -0.1)">
       <defs>
        <path d="M 37.796875 64.3125 
L 12.890625 25.390625 
L 37.796875 25.390625 
z
M 35.203125 72.90625 
L 47.609375 72.90625 
L 47.609375 25.390625 
L 58.015625 25.390625 
L 58.015625 17.1875 
L 47.609375 17.1875 
L 47.609375 0 
L 37.796875 0 
L 37.796875 17.1875 
L 4.890625 17.1875 
L 4.890625 26.703125 
z
" id="DejaVuSans-52"/>
       </defs>
       <use xlink:href="#DejaVuSans-48"/>
       <use x="63.623047" xlink:href="#DejaVuSans-46"/>
       <use x="95.410156" xlink:href="#DejaVuSans-52"/>
      </g>
     </g>
    </g>
    <g id="xtick_4">
     <g id="line2d_4">
      <g>
       <use style="stroke:#000000;stroke-width:0.8;" x="30.820642" xlink:href="#maf55e7a6cc" y="332.12"/>
      </g>
     </g>
     <g id="text_4">
      <!-- 0.6 -->
      <g transform="translate(22.869079 346.718437)scale(0.1 -0.1)">
       <defs>
        <path d="M 33.015625 40.375 
Q 26.375 40.375 22.484375 35.828125 
Q 18.609375 31.296875 18.609375 23.390625 
Q 18.609375 15.53125 22.484375 10.953125 
Q 26.375 6.390625 33.015625 6.390625 
Q 39.65625 6.390625 43.53125 10.953125 
Q 47.40625 15.53125 47.40625 23.390625 
Q 47.40625 31.296875 43.53125 35.828125 
Q 39.65625 40.375 33.015625 40.375 
z
M 52.59375 71.296875 
L 52.59375 62.3125 
Q 48.875 64.0625 45.09375 64.984375 
Q 41.3125 65.921875 37.59375 65.921875 
Q 27.828125 65.921875 22.671875 59.328125 
Q 17.53125 52.734375 16.796875 39.40625 
Q 19.671875 43.65625 24.015625 45.921875 
Q 28.375 48.1875 33.59375 48.1875 
Q 44.578125 48.1875 50.953125 41.515625 
Q 57.328125 34.859375 57.328125 23.390625 
Q 57.328125 12.15625 50.6875 5.359375 
Q 44.046875 -1.421875 33.015625 -1.421875 
Q 20.359375 -1.421875 13.671875 8.265625 
Q 6.984375 17.96875 6.984375 36.375 
Q 6.984375 53.65625 15.1875 63.9375 
Q 23.390625 74.21875 37.203125 74.21875 
Q 40.921875 74.21875 44.703125 73.484375 
Q 48.484375 72.75 52.59375 71.296875 
z
" id="DejaVuSans-54"/>
       </defs>
       <use xlink:href="#DejaVuSans-48"/>
       <use x="63.623047" xlink:href="#DejaVuSans-46"/>
       <use x="95.410156" xlink:href="#DejaVuSans-54"/>
      </g>
     </g>
    </g>
   </g>
   <g id="matplotlib.axis_2">
    <g id="ytick_1">
     <g id="text_5">
      <!-- L5 -->
      <g transform="translate(195.57 331.423096)scale(0.08 -0.08)">
       <defs>
        <path d="M 9.8125 72.90625 
L 19.671875 72.90625 
L 19.671875 8.296875 
L 55.171875 8.296875 
L 55.171875 0 
L 9.8125 0 
z
" id="DejaVuSans-76"/>
        <path d="M 10.796875 72.90625 
L 49.515625 72.90625 
L 49.515625 64.59375 
L 19.828125 64.59375 
L 19.828125 46.734375 
Q 21.96875 47.46875 24.109375 47.828125 
Q 26.265625 48.1875 28.421875 48.1875 
Q 40.625 48.1875 47.75 41.5 
Q 54.890625 34.8125 54.890625 23.390625 
Q 54.890625 11.625 47.5625 5.09375 
Q 40.234375 -1.421875 26.90625 -1.421875 
Q 22.3125 -1.421875 17.546875 -0.640625 
Q 12.796875 0.140625 7.71875 1.703125 
L 7.71875 11.625 
Q 12.109375 9.234375 16.796875 8.0625 
Q 21.484375 6.890625 26.703125 6.890625 
Q 35.15625 6.890625 40.078125 11.328125 
Q 45.015625 15.765625 45.015625 23.390625 
Q 45.015625 31 40.078125 35.4375 
Q 35.15625 39.890625 26.703125 39.890625 
Q 22.75 39.890625 18.8125 39.015625 
Q 14.890625 38.140625 10.796875 36.28125 
z
" id="DejaVuSans-53"/>
       </defs>
       <use xlink:href="#DejaVuSans-76"/>
       <use x="55.712891" xlink:href="#DejaVuSans-53"/>
      </g>
     </g>
    </g>
    <g id="ytick_2">
     <g id="text_6">
      <!-- L4 -->
      <g transform="translate(195.57 323.950538)scale(0.08 -0.08)">
       <use xlink:href="#DejaVuSans-76"/>
       <use x="55.712891" xlink:href="#DejaVuSans-52"/>
      </g>
     </g>
    </g>
    <g id="ytick_3">
     <g id="text_7">
      <!-- L1 -->
      <g transform="translate(195.57 316.47798)scale(0.08 -0.08)">
       <defs>
        <path d="M 12.40625 8.296875 
L 28.515625 8.296875 
L 28.515625 63.921875 
L 10.984375 60.40625 
L 10.984375 69.390625 
L 28.421875 72.90625 
L 38.28125 72.90625 
L 38.28125 8.296875 
L 54.390625 8.296875 
L 54.390625 0 
L 12.40625 0 
z
" id="DejaVuSans-49"/>
       </defs>
       <use xlink:href="#DejaVuSans-76"/>
       <use x="55.712891" xlink:href="#DejaVuSans-49"/>
      </g>
     </g>
    </g>
    <g id="ytick_4">
     <g id="text_8">
      <!-- L1 -->
      <g transform="translate(195.57 309.005422)scale(0.08 -0.08)">
       <use xlink:href="#DejaVuSans-76"/>
       <use x="55.712891" xlink:href="#DejaVuSans-49"/>
      </g>
     </g>
    </g>
    <g id="ytick_5">
     <g id="text_9">
      <!-- L1 -->
      <g transform="translate(195.57 301.532863)scale(0.08 -0.08)">
       <use xlink:href="#DejaVuSans-76"/>
       <use x="55.712891" xlink:href="#DejaVuSans-49"/>
      </g>
     </g>
    </g>
    <g id="ytick_6">
     <g id="text_10">
      <!-- L1 -->
      <g transform="translate(195.57 294.060305)scale(0.08 -0.08)">
       <use xlink:href="#DejaVuSans-76"/>
       <use x="55.712891" xlink:href="#DejaVuSans-49"/>
      </g>
     </g>
    </g>
    <g id="ytick_7">
     <g id="text_11">
      <!-- L1 -->
      <g transform="translate(195.57 286.587747)scale(0.08 -0.08)">
       <use xlink:href="#DejaVuSans-76"/>
       <use x="55.712891" xlink:href="#DejaVuSans-49"/>
      </g>
     </g>
    </g>
    <g id="ytick_8">
     <g id="text_12">
      <!-- L1 -->
      <g transform="translate(195.57 279.115189)scale(0.08 -0.08)">
       <use xlink:href="#DejaVuSans-76"/>
       <use x="55.712891" xlink:href="#DejaVuSans-49"/>
      </g>
     </g>
    </g>
    <g id="ytick_9">
     <g id="text_13">
      <!-- L1 -->
      <g transform="translate(195.57 271.642631)scale(0.08 -0.08)">
       <use xlink:href="#DejaVuSans-76"/>
       <use x="55.712891" xlink:href="#DejaVuSans-49"/>
      </g>
     </g>
    </g>
    <g id="ytick_10">
     <g id="text_14">
      <!-- L1 -->
      <g transform="translate(195.57 264.170073)scale(0.08 -0.08)">
       <use xlink:href="#DejaVuSans-76"/>
       <use x="55.712891" xlink:href="#DejaVuSans-49"/>
      </g>
     </g>
    </g>
    <g id="ytick_11">
     <g id="text_15">
      <!-- L1 -->
      <g transform="translate(195.57 256.697515)scale(0.08 -0.08)">
       <use xlink:href="#DejaVuSans-76"/>
       <use x="55.712891" xlink:href="#DejaVuSans-49"/>
      </g>
     </g>
    </g>
    <g id="ytick_12">
     <g id="text_16">
      <!-- L1 -->
      <g transform="translate(195.57 249.224956)scale(0.08 -0.08)">
       <use xlink:href="#DejaVuSans-76"/>
       <use x="55.712891" xlink:href="#DejaVuSans-49"/>
      </g>
     </g>
    </g>
    <g id="ytick_13">
     <g id="text_17">
      <!-- L1 -->
      <g transform="translate(195.57 241.752398)scale(0.08 -0.08)">
       <use xlink:href="#DejaVuSans-76"/>
       <use x="55.712891" xlink:href="#DejaVuSans-49"/>
      </g>
     </g>
    </g>
    <g id="ytick_14">
     <g id="text_18">
      <!-- L1 -->
      <g transform="translate(195.57 234.27984)scale(0.08 -0.08)">
       <use xlink:href="#DejaVuSans-76"/>
       <use x="55.712891" xlink:href="#DejaVuSans-49"/>
      </g>
     </g>
    </g>
    <g id="ytick_15">
     <g id="text_19">
      <!-- L1 -->
      <g transform="translate(195.57 226.807282)scale(0.08 -0.08)">
       <use xlink:href="#DejaVuSans-76"/>
       <use x="55.712891" xlink:href="#DejaVuSans-49"/>
      </g>
     </g>
    </g>
    <g id="ytick_16">
     <g id="text_20">
      <!-- L1 -->
      <g transform="translate(195.57 219.334724)scale(0.08 -0.08)">
       <use xlink:href="#DejaVuSans-76"/>
       <use x="55.712891" xlink:href="#DejaVuSans-49"/>
      </g>
     </g>
    </g>
    <g id="ytick_17">
     <g id="text_21">
      <!-- L1 -->
      <g transform="translate(195.57 211.862166)scale(0.08 -0.08)">
       <use xlink:href="#DejaVuSans-76"/>
       <use x="55.712891" xlink:href="#DejaVuSans-49"/>
      </g>
     </g>
    </g>
    <g id="ytick_18">
     <g id="text_22">
      <!-- L1 -->
      <g transform="translate(195.57 204.389608)scale(0.08 -0.08)">
       <use xlink:href="#DejaVuSans-76"/>
       <use x="55.712891" xlink:href="#DejaVuSans-49"/>
      </g>
     </g>
    </g>
    <g id="ytick_19">
     <g id="text_23">
      <!-- L1 -->
      <g transform="translate(195.57 196.917049)scale(0.08 -0.08)">
       <use xlink:href="#DejaVuSans-76"/>
       <use x="55.712891" xlink:href="#DejaVuSans-49"/>
      </g>
     </g>
    </g>
    <g id="ytick_20">
     <g id="text_24">
      <!-- L1 -->
      <g transform="translate(195.57 189.444491)scale(0.08 -0.08)">
       <use xlink:href="#DejaVuSans-76"/>
       <use x="55.712891" xlink:href="#DejaVuSans-49"/>
      </g>
     </g>
    </g>
    <g id="ytick_21">
     <g id="text_25">
      <!-- L1 -->
      <g transform="translate(195.57 181.971933)scale(0.08 -0.08)">
       <use xlink:href="#DejaVuSans-76"/>
       <use x="55.712891" xlink:href="#DejaVuSans-49"/>
      </g>
     </g>
    </g>
    <g id="ytick_22">
     <g id="text_26">
      <!-- L1 -->
      <g transform="translate(195.57 174.499375)scale(0.08 -0.08)">
       <use xlink:href="#DejaVuSans-76"/>
       <use x="55.712891" xlink:href="#DejaVuSans-49"/>
      </g>
     </g>
    </g>
    <g id="ytick_23">
     <g id="text_27">
      <!-- L1 -->
      <g transform="translate(195.57 167.026817)scale(0.08 -0.08)">
       <use xlink:href="#DejaVuSans-76"/>
       <use x="55.712891" xlink:href="#DejaVuSans-49"/>
      </g>
     </g>
    </g>
    <g id="ytick_24">
     <g id="text_28">
      <!-- L1 -->
      <g transform="translate(195.57 159.554259)scale(0.08 -0.08)">
       <use xlink:href="#DejaVuSans-76"/>
       <use x="55.712891" xlink:href="#DejaVuSans-49"/>
      </g>
     </g>
    </g>
    <g id="ytick_25">
     <g id="text_29">
      <!-- L1 -->
      <g transform="translate(195.57 152.081701)scale(0.08 -0.08)">
       <use xlink:href="#DejaVuSans-76"/>
       <use x="55.712891" xlink:href="#DejaVuSans-49"/>
      </g>
     </g>
    </g>
    <g id="ytick_26">
     <g id="text_30">
      <!-- L1 -->
      <g transform="translate(195.57 144.609142)scale(0.08 -0.08)">
       <use xlink:href="#DejaVuSans-76"/>
       <use x="55.712891" xlink:href="#DejaVuSans-49"/>
      </g>
     </g>
    </g>
    <g id="ytick_27">
     <g id="text_31">
      <!-- L1 -->
      <g transform="translate(195.57 137.136584)scale(0.08 -0.08)">
       <use xlink:href="#DejaVuSans-76"/>
       <use x="55.712891" xlink:href="#DejaVuSans-49"/>
      </g>
     </g>
    </g>
    <g id="ytick_28">
     <g id="text_32">
      <!-- L1 -->
      <g transform="translate(195.57 129.664026)scale(0.08 -0.08)">
       <use xlink:href="#DejaVuSans-76"/>
       <use x="55.712891" xlink:href="#DejaVuSans-49"/>
      </g>
     </g>
    </g>
    <g id="ytick_29">
     <g id="text_33">
      <!-- L1 -->
      <g transform="translate(195.57 122.191468)scale(0.08 -0.08)">
       <use xlink:href="#DejaVuSans-76"/>
       <use x="55.712891" xlink:href="#DejaVuSans-49"/>
      </g>
     </g>
    </g>
    <g id="ytick_30">
     <g id="text_34">
      <!-- L1 -->
      <g transform="translate(195.57 114.71891)scale(0.08 -0.08)">
       <use xlink:href="#DejaVuSans-76"/>
       <use x="55.712891" xlink:href="#DejaVuSans-49"/>
      </g>
     </g>
    </g>
    <g id="ytick_31">
     <g id="text_35">
      <!-- L1 -->
      <g transform="translate(195.57 107.246352)scale(0.08 -0.08)">
       <use xlink:href="#DejaVuSans-76"/>
       <use x="55.712891" xlink:href="#DejaVuSans-49"/>
      </g>
     </g>
    </g>
    <g id="ytick_32">
     <g id="text_36">
      <!-- L1 -->
      <g transform="translate(195.57 99.773794)scale(0.08 -0.08)">
       <use xlink:href="#DejaVuSans-76"/>
       <use x="55.712891" xlink:href="#DejaVuSans-49"/>
      </g>
     </g>
    </g>
    <g id="ytick_33">
     <g id="text_37">
      <!-- L3 -->
      <g transform="translate(195.57 92.301235)scale(0.08 -0.08)">
       <defs>
        <path d="M 40.578125 39.3125 
Q 47.65625 37.796875 51.625 33 
Q 55.609375 28.21875 55.609375 21.1875 
Q 55.609375 10.40625 48.1875 4.484375 
Q 40.765625 -1.421875 27.09375 -1.421875 
Q 22.515625 -1.421875 17.65625 -0.515625 
Q 12.796875 0.390625 7.625 2.203125 
L 7.625 11.71875 
Q 11.71875 9.328125 16.59375 8.109375 
Q 21.484375 6.890625 26.8125 6.890625 
Q 36.078125 6.890625 40.9375 10.546875 
Q 45.796875 14.203125 45.796875 21.1875 
Q 45.796875 27.640625 41.28125 31.265625 
Q 36.765625 34.90625 28.71875 34.90625 
L 20.21875 34.90625 
L 20.21875 43.015625 
L 29.109375 43.015625 
Q 36.375 43.015625 40.234375 45.921875 
Q 44.09375 48.828125 44.09375 54.296875 
Q 44.09375 59.90625 40.109375 62.90625 
Q 36.140625 65.921875 28.71875 65.921875 
Q 24.65625 65.921875 20.015625 65.03125 
Q 15.375 64.15625 9.8125 62.3125 
L 9.8125 71.09375 
Q 15.4375 72.65625 20.34375 73.4375 
Q 25.25 74.21875 29.59375 74.21875 
Q 40.828125 74.21875 47.359375 69.109375 
Q 53.90625 64.015625 53.90625 55.328125 
Q 53.90625 49.265625 50.4375 45.09375 
Q 46.96875 40.921875 40.578125 39.3125 
z
" id="DejaVuSans-51"/>
       </defs>
       <use xlink:href="#DejaVuSans-76"/>
       <use x="55.712891" xlink:href="#DejaVuSans-51"/>
      </g>
     </g>
    </g>
    <g id="ytick_34">
     <g id="text_38">
      <!-- L3 -->
      <g transform="translate(195.57 84.828677)scale(0.08 -0.08)">
       <use xlink:href="#DejaVuSans-76"/>
       <use x="55.712891" xlink:href="#DejaVuSans-51"/>
      </g>
     </g>
    </g>
    <g id="ytick_35">
     <g id="text_39">
      <!-- L3 -->
      <g transform="translate(195.57 77.356119)scale(0.08 -0.08)">
       <use xlink:href="#DejaVuSans-76"/>
       <use x="55.712891" xlink:href="#DejaVuSans-51"/>
      </g>
     </g>
    </g>
    <g id="ytick_36">
     <g id="text_40">
      <!-- L3 -->
      <g transform="translate(195.57 69.883561)scale(0.08 -0.08)">
       <use xlink:href="#DejaVuSans-76"/>
       <use x="55.712891" xlink:href="#DejaVuSans-51"/>
      </g>
     </g>
    </g>
    <g id="ytick_37">
     <g id="text_41">
      <!-- L3 -->
      <g transform="translate(195.57 62.411003)scale(0.08 -0.08)">
       <use xlink:href="#DejaVuSans-76"/>
       <use x="55.712891" xlink:href="#DejaVuSans-51"/>
      </g>
     </g>
    </g>
    <g id="ytick_38">
     <g id="text_42">
      <!-- L2 -->
      <g transform="translate(195.57 54.938445)scale(0.08 -0.08)">
       <use xlink:href="#DejaVuSans-76"/>
       <use x="55.712891" xlink:href="#DejaVuSans-50"/>
      </g>
     </g>
    </g>
    <g id="ytick_39">
     <g id="text_43">
      <!-- L2 -->
      <g transform="translate(195.57 47.465887)scale(0.08 -0.08)">
       <use xlink:href="#DejaVuSans-76"/>
       <use x="55.712891" xlink:href="#DejaVuSans-50"/>
      </g>
     </g>
    </g>
    <g id="ytick_40">
     <g id="text_44">
      <!-- L2 -->
      <g transform="translate(195.57 39.993328)scale(0.08 -0.08)">
       <use xlink:href="#DejaVuSans-76"/>
       <use x="55.712891" xlink:href="#DejaVuSans-50"/>
      </g>
     </g>
    </g>
    <g id="ytick_41">
     <g id="text_45">
      <!-- L2 -->
      <g transform="translate(195.57 32.52077)scale(0.08 -0.08)">
       <use xlink:href="#DejaVuSans-76"/>
       <use x="55.712891" xlink:href="#DejaVuSans-50"/>
      </g>
     </g>
    </g>
    <g id="ytick_42">
     <g id="text_46">
      <!-- L2 -->
      <g transform="translate(195.57 25.048212)scale(0.08 -0.08)">
       <use xlink:href="#DejaVuSans-76"/>
       <use x="55.712891" xlink:href="#DejaVuSans-50"/>
      </g>
     </g>
    </g>
    <g id="ytick_43">
     <g id="text_47">
      <!-- L2 -->
      <g transform="translate(195.57 17.575654)scale(0.08 -0.08)">
       <use xlink:href="#DejaVuSans-76"/>
       <use x="55.712891" xlink:href="#DejaVuSans-50"/>
      </g>
     </g>
    </g>
   </g>
   <g id="LineCollection_1">
    <path clip-path="url(#p35acda9121)" d="M 188.57 313.438605 
L 168.27055 313.438605 
L 168.27055 305.966047 
L 188.57 305.966047 
" style="fill:none;stroke:#008000;stroke-width:1.5;"/>
    <path clip-path="url(#p35acda9121)" d="M 188.57 298.493488 
L 178.495863 298.493488 
L 178.495863 291.02093 
L 188.57 291.02093 
" style="fill:none;stroke:#008000;stroke-width:1.5;"/>
    <path clip-path="url(#p35acda9121)" d="M 168.27055 309.702326 
L 161.088747 309.702326 
L 161.088747 294.757209 
L 178.495863 294.757209 
" style="fill:none;stroke:#008000;stroke-width:1.5;"/>
    <path clip-path="url(#p35acda9121)" d="M 188.57 283.548372 
L 158.160393 283.548372 
L 158.160393 276.075814 
L 188.57 276.075814 
" style="fill:none;stroke:#008000;stroke-width:1.5;"/>
    <path clip-path="url(#p35acda9121)" d="M 158.160393 279.812093 
L 151.323799 279.812093 
L 151.323799 268.603256 
L 188.57 268.603256 
" style="fill:none;stroke:#008000;stroke-width:1.5;"/>
    <path clip-path="url(#p35acda9121)" d="M 161.088747 302.229767 
L 139.896173 302.229767 
L 139.896173 274.207674 
L 151.323799 274.207674 
" style="fill:none;stroke:#008000;stroke-width:1.5;"/>
    <path clip-path="url(#p35acda9121)" d="M 139.896173 288.218721 
L 131.012517 288.218721 
L 131.012517 261.130698 
L 188.57 261.130698 
" style="fill:none;stroke:#008000;stroke-width:1.5;"/>
    <path clip-path="url(#p35acda9121)" d="M 188.57 246.185581 
L 169.764173 246.185581 
L 169.764173 238.713023 
L 188.57 238.713023 
" style="fill:none;stroke:#008000;stroke-width:1.5;"/>
    <path clip-path="url(#p35acda9121)" d="M 188.57 253.65814 
L 152.757478 253.65814 
L 152.757478 242.449302 
L 169.764173 242.449302 
" style="fill:none;stroke:#008000;stroke-width:1.5;"/>
    <path clip-path="url(#p35acda9121)" d="M 131.012517 274.674709 
L 130.995691 274.674709 
L 130.995691 248.053721 
L 152.757478 248.053721 
" style="fill:none;stroke:#008000;stroke-width:1.5;"/>
    <path clip-path="url(#p35acda9121)" d="M 188.57 216.295349 
L 171.723157 216.295349 
L 171.723157 208.822791 
L 188.57 208.822791 
" style="fill:none;stroke:#008000;stroke-width:1.5;"/>
    <path clip-path="url(#p35acda9121)" d="M 188.57 223.767907 
L 164.064163 223.767907 
L 164.064163 212.55907 
L 171.723157 212.55907 
" style="fill:none;stroke:#008000;stroke-width:1.5;"/>
    <path clip-path="url(#p35acda9121)" d="M 188.57 201.350233 
L 175.867233 201.350233 
L 175.867233 193.877674 
L 188.57 193.877674 
" style="fill:none;stroke:#008000;stroke-width:1.5;"/>
    <path clip-path="url(#p35acda9121)" d="M 188.57 186.405116 
L 177.956886 186.405116 
L 177.956886 178.932558 
L 188.57 178.932558 
" style="fill:none;stroke:#008000;stroke-width:1.5;"/>
    <path clip-path="url(#p35acda9121)" d="M 175.867233 197.613953 
L 175.708695 197.613953 
L 175.708695 182.668837 
L 177.956886 182.668837 
" style="fill:none;stroke:#008000;stroke-width:1.5;"/>
    <path clip-path="url(#p35acda9121)" d="M 175.708695 190.141395 
L 169.604583 190.141395 
L 169.604583 171.46 
L 188.57 171.46 
" style="fill:none;stroke:#008000;stroke-width:1.5;"/>
    <path clip-path="url(#p35acda9121)" d="M 169.604583 180.800698 
L 162.512961 180.800698 
L 162.512961 163.987442 
L 188.57 163.987442 
" style="fill:none;stroke:#008000;stroke-width:1.5;"/>
    <path clip-path="url(#p35acda9121)" d="M 162.512961 172.39407 
L 161.738937 172.39407 
L 161.738937 156.514884 
L 188.57 156.514884 
" style="fill:none;stroke:#008000;stroke-width:1.5;"/>
    <path clip-path="url(#p35acda9121)" d="M 164.064163 218.163488 
L 158.786658 218.163488 
L 158.786658 164.454477 
L 161.738937 164.454477 
" style="fill:none;stroke:#008000;stroke-width:1.5;"/>
    <path clip-path="url(#p35acda9121)" d="M 188.57 231.240465 
L 156.965179 231.240465 
L 156.965179 191.308983 
L 158.786658 191.308983 
" style="fill:none;stroke:#008000;stroke-width:1.5;"/>
    <path clip-path="url(#p35acda9121)" d="M 188.57 141.569767 
L 161.105574 141.569767 
L 161.105574 134.097209 
L 188.57 134.097209 
" style="fill:none;stroke:#008000;stroke-width:1.5;"/>
    <path clip-path="url(#p35acda9121)" d="M 188.57 149.042326 
L 152.988055 149.042326 
L 152.988055 137.833488 
L 161.105574 137.833488 
" style="fill:none;stroke:#008000;stroke-width:1.5;"/>
    <path clip-path="url(#p35acda9121)" d="M 152.988055 143.437907 
L 149.028546 143.437907 
L 149.028546 126.624651 
L 188.57 126.624651 
" style="fill:none;stroke:#008000;stroke-width:1.5;"/>
    <path clip-path="url(#p35acda9121)" d="M 156.965179 211.274724 
L 146.741706 211.274724 
L 146.741706 135.031279 
L 149.028546 135.031279 
" style="fill:none;stroke:#008000;stroke-width:1.5;"/>
    <path clip-path="url(#p35acda9121)" d="M 188.57 119.152093 
L 152.41595 119.152093 
L 152.41595 111.679535 
L 188.57 111.679535 
" style="fill:none;stroke:#008000;stroke-width:1.5;"/>
    <path clip-path="url(#p35acda9121)" d="M 146.741706 173.153001 
L 145.390057 173.153001 
L 145.390057 115.415814 
L 152.41595 115.415814 
" style="fill:none;stroke:#008000;stroke-width:1.5;"/>
    <path clip-path="url(#p35acda9121)" d="M 145.390057 144.284408 
L 124.992802 144.284408 
L 124.992802 104.206977 
L 188.57 104.206977 
" style="fill:none;stroke:#008000;stroke-width:1.5;"/>
    <path clip-path="url(#p35acda9121)" d="M 130.995691 261.364215 
L 123.977422 261.364215 
L 123.977422 124.245692 
L 124.992802 124.245692 
" style="fill:none;stroke:#008000;stroke-width:1.5;"/>
    <path clip-path="url(#p35acda9121)" d="M 123.977422 192.804954 
L 94.39337 192.804954 
L 94.39337 96.734419 
L 188.57 96.734419 
" style="fill:none;stroke:#008000;stroke-width:1.5;"/>
   </g>
   <g id="LineCollection_2">
    <path clip-path="url(#p35acda9121)" d="M 188.57 89.26186 
L 142.542944 89.26186 
L 142.542944 81.789302 
L 188.57 81.789302 
" style="fill:none;stroke:#ff0000;stroke-width:1.5;"/>
    <path clip-path="url(#p35acda9121)" d="M 142.542944 85.525581 
L 118.838736 85.525581 
L 118.838736 74.316744 
L 188.57 74.316744 
" style="fill:none;stroke:#ff0000;stroke-width:1.5;"/>
    <path clip-path="url(#p35acda9121)" d="M 188.57 66.844186 
L 168.976478 66.844186 
L 168.976478 59.371628 
L 188.57 59.371628 
" style="fill:none;stroke:#ff0000;stroke-width:1.5;"/>
    <path clip-path="url(#p35acda9121)" d="M 118.838736 79.921163 
L 108.81876 79.921163 
L 108.81876 63.107907 
L 168.976478 63.107907 
" style="fill:none;stroke:#ff0000;stroke-width:1.5;"/>
   </g>
   <g id="LineCollection_3">
    <path clip-path="url(#p35acda9121)" d="M 188.57 51.89907 
L 173.90746 51.89907 
L 173.90746 44.426512 
L 188.57 44.426512 
" style="fill:none;stroke:#00bfbf;stroke-width:1.5;"/>
    <path clip-path="url(#p35acda9121)" d="M 188.57 29.481395 
L 179.970557 29.481395 
L 179.970557 22.008837 
L 188.57 22.008837 
" style="fill:none;stroke:#00bfbf;stroke-width:1.5;"/>
    <path clip-path="url(#p35acda9121)" d="M 188.57 36.953953 
L 147.362975 36.953953 
L 147.362975 25.745116 
L 179.970557 25.745116 
" style="fill:none;stroke:#00bfbf;stroke-width:1.5;"/>
    <path clip-path="url(#p35acda9121)" d="M 147.362975 31.349535 
L 117.850437 31.349535 
L 117.850437 14.536279 
L 188.57 14.536279 
" style="fill:none;stroke:#00bfbf;stroke-width:1.5;"/>
    <path clip-path="url(#p35acda9121)" d="M 173.90746 48.162791 
L 80.905274 48.162791 
L 80.905274 22.942907 
L 117.850437 22.942907 
" style="fill:none;stroke:#00bfbf;stroke-width:1.5;"/>
   </g>
   <g id="LineCollection_4">
    <path clip-path="url(#p35acda9121)" d="M 94.39337 144.769686 
L 79.607523 144.769686 
L 79.607523 71.514535 
L 108.81876 71.514535 
" style="fill:none;stroke:#0000ff;stroke-width:1.5;"/>
    <path clip-path="url(#p35acda9121)" d="M 79.607523 108.142111 
L 35.516577 108.142111 
L 35.516577 35.552849 
L 80.905274 35.552849 
" style="fill:none;stroke:#0000ff;stroke-width:1.5;"/>
    <path clip-path="url(#p35acda9121)" d="M 188.57 320.911163 
L 34.305588 320.911163 
L 34.305588 71.84748 
L 35.516577 71.84748 
" style="fill:none;stroke:#0000ff;stroke-width:1.5;"/>
    <path clip-path="url(#p35acda9121)" d="M 188.57 328.383721 
L 19.265238 328.383721 
L 19.265238 196.379321 
L 34.305588 196.379321 
" style="fill:none;stroke:#0000ff;stroke-width:1.5;"/>
   </g>
   <g id="patch_3">
    <path d="M 10.8 332.12 
L 10.8 10.8 
" style="fill:none;stroke:#000000;stroke-linecap:square;stroke-linejoin:miter;stroke-width:0.8;"/>
   </g>
   <g id="patch_4">
    <path d="M 188.57 332.12 
L 188.57 10.8 
" style="fill:none;stroke:#000000;stroke-linecap:square;stroke-linejoin:miter;stroke-width:0.8;"/>
   </g>
   <g id="patch_5">
    <path d="M 10.8 332.12 
L 188.57 332.12 
" style="fill:none;stroke:#000000;stroke-linecap:square;stroke-linejoin:miter;stroke-width:0.8;"/>
   </g>
   <g id="patch_6">
    <path d="M 10.8 10.8 
L 188.57 10.8 
" style="fill:none;stroke:#000000;stroke-linecap:square;stroke-linejoin:miter;stroke-width:0.8;"/>
   </g>
  </g>
 </g>
 <defs>
  <clipPath id="p35acda9121">
   <rect height="321.32" width="177.77" x="10.8" y="10.8"/>
  </clipPath>
 </defs>
</svg>
