<?xml version="1.0" encoding="utf-8" standalone="no"?>
<!DOCTYPE svg PUBLIC "-//W3C//DTD SVG 1.1//EN"
  "http://www.w3.org/Graphics/SVG/1.1/DTD/svg11.dtd">
<!-- Created with matplotlib (https://matplotlib.org/) -->
<svg height="252pt" version="1.1" viewBox="0 0 360 252" width="360pt" xmlns="http://www.w3.org/2000/svg" xmlns:xlink="http://www.w3.org/1999/xlink">
 <metadata>
  <rdf:RDF xmlns:cc="http://creativecommons.org/ns#" xmlns:dc="http://purl.org/dc/elements/1.1/" xmlns:rdf="http://www.w3.org/1999/02/22-rdf-syntax-ns#">
   <cc:Work>
    <dc:type rdf:resource="http://purl.org/dc/dcmitype/StillImage"/>
    <dc:date>2020-09-10T14:12:29.173221</dc:date>
    <dc:format>image/svg+xml</dc:format>
    <dc:creator>
     <cc:Agent>
      <dc:title>Matplotlib v3.3.0, https://matplotlib.org/</dc:title>
     </cc:Agent>
    </dc:creator>
   </cc:Work>
  </rdf:RDF>
 </metadata>
 <defs>
  <style type="text/css">*{stroke-linecap:butt;stroke-linejoin:round;}</style>
 </defs>
 <g id="figure_1">
  <g id="patch_1">
   <path d="M 0 252 
L 360 252 
L 360 0 
L 0 0 
z
" style="fill:#ffffff;"/>
  </g>
  <g id="axes_1">
   <g id="patch_2">
    <path d="M 43.742 198.376 
L 136.028 198.376 
L 136.028 24.72 
L 43.742 24.72 
z
" style="fill:#ffffff;"/>
   </g>
   <g id="matplotlib.axis_1">
    <g id="xtick_1">
     <g id="line2d_1">
      <defs>
       <path d="M 0 0 
L 0 3.5 
" id="m8f12fc4547" style="stroke:#000000;stroke-width:0.8;"/>
      </defs>
      <g>
       <use style="stroke:#000000;stroke-width:0.8;" x="66.8135" xlink:href="#m8f12fc4547" y="198.376"/>
      </g>
     </g>
     <g id="text_1">
      <!-- Motor -->
      <g transform="translate(52.365063 212.974438)scale(0.1 -0.1)">
       <defs>
        <path d="M 9.8125 72.90625 
L 24.515625 72.90625 
L 43.109375 23.296875 
L 61.8125 72.90625 
L 76.515625 72.90625 
L 76.515625 0 
L 66.890625 0 
L 66.890625 64.015625 
L 48.09375 14.015625 
L 38.1875 14.015625 
L 19.390625 64.015625 
L 19.390625 0 
L 9.8125 0 
z
" id="DejaVuSans-77"/>
        <path d="M 30.609375 48.390625 
Q 23.390625 48.390625 19.1875 42.75 
Q 14.984375 37.109375 14.984375 27.296875 
Q 14.984375 17.484375 19.15625 11.84375 
Q 23.34375 6.203125 30.609375 6.203125 
Q 37.796875 6.203125 41.984375 11.859375 
Q 46.1875 17.53125 46.1875 27.296875 
Q 46.1875 37.015625 41.984375 42.703125 
Q 37.796875 48.390625 30.609375 48.390625 
z
M 30.609375 56 
Q 42.328125 56 49.015625 48.375 
Q 55.71875 40.765625 55.71875 27.296875 
Q 55.71875 13.875 49.015625 6.21875 
Q 42.328125 -1.421875 30.609375 -1.421875 
Q 18.84375 -1.421875 12.171875 6.21875 
Q 5.515625 13.875 5.515625 27.296875 
Q 5.515625 40.765625 12.171875 48.375 
Q 18.84375 56 30.609375 56 
z
" id="DejaVuSans-111"/>
        <path d="M 18.3125 70.21875 
L 18.3125 54.6875 
L 36.8125 54.6875 
L 36.8125 47.703125 
L 18.3125 47.703125 
L 18.3125 18.015625 
Q 18.3125 11.328125 20.140625 9.421875 
Q 21.96875 7.515625 27.59375 7.515625 
L 36.8125 7.515625 
L 36.8125 0 
L 27.59375 0 
Q 17.1875 0 13.234375 3.875 
Q 9.28125 7.765625 9.28125 18.015625 
L 9.28125 47.703125 
L 2.6875 47.703125 
L 2.6875 54.6875 
L 9.28125 54.6875 
L 9.28125 70.21875 
z
" id="DejaVuSans-116"/>
        <path d="M 41.109375 46.296875 
Q 39.59375 47.171875 37.8125 47.578125 
Q 36.03125 48 33.890625 48 
Q 26.265625 48 22.1875 43.046875 
Q 18.109375 38.09375 18.109375 28.8125 
L 18.109375 0 
L 9.078125 0 
L 9.078125 54.6875 
L 18.109375 54.6875 
L 18.109375 46.1875 
Q 20.953125 51.171875 25.484375 53.578125 
Q 30.03125 56 36.53125 56 
Q 37.453125 56 38.578125 55.875 
Q 39.703125 55.765625 41.0625 55.515625 
z
" id="DejaVuSans-114"/>
       </defs>
       <use xlink:href="#DejaVuSans-77"/>
       <use x="86.279297" xlink:href="#DejaVuSans-111"/>
       <use x="147.460938" xlink:href="#DejaVuSans-116"/>
       <use x="186.669922" xlink:href="#DejaVuSans-111"/>
       <use x="247.851562" xlink:href="#DejaVuSans-114"/>
      </g>
      <!-- neurons -->
      <g transform="translate(46.623656 224.17225)scale(0.1 -0.1)">
       <defs>
        <path d="M 54.890625 33.015625 
L 54.890625 0 
L 45.90625 0 
L 45.90625 32.71875 
Q 45.90625 40.484375 42.875 44.328125 
Q 39.84375 48.1875 33.796875 48.1875 
Q 26.515625 48.1875 22.3125 43.546875 
Q 18.109375 38.921875 18.109375 30.90625 
L 18.109375 0 
L 9.078125 0 
L 9.078125 54.6875 
L 18.109375 54.6875 
L 18.109375 46.1875 
Q 21.34375 51.125 25.703125 53.5625 
Q 30.078125 56 35.796875 56 
Q 45.21875 56 50.046875 50.171875 
Q 54.890625 44.34375 54.890625 33.015625 
z
" id="DejaVuSans-110"/>
        <path d="M 56.203125 29.59375 
L 56.203125 25.203125 
L 14.890625 25.203125 
Q 15.484375 15.921875 20.484375 11.0625 
Q 25.484375 6.203125 34.421875 6.203125 
Q 39.59375 6.203125 44.453125 7.46875 
Q 49.3125 8.734375 54.109375 11.28125 
L 54.109375 2.78125 
Q 49.265625 0.734375 44.1875 -0.34375 
Q 39.109375 -1.421875 33.890625 -1.421875 
Q 20.796875 -1.421875 13.15625 6.1875 
Q 5.515625 13.8125 5.515625 26.8125 
Q 5.515625 40.234375 12.765625 48.109375 
Q 20.015625 56 32.328125 56 
Q 43.359375 56 49.78125 48.890625 
Q 56.203125 41.796875 56.203125 29.59375 
z
M 47.21875 32.234375 
Q 47.125 39.59375 43.09375 43.984375 
Q 39.0625 48.390625 32.421875 48.390625 
Q 24.90625 48.390625 20.390625 44.140625 
Q 15.875 39.890625 15.1875 32.171875 
z
" id="DejaVuSans-101"/>
        <path d="M 8.5 21.578125 
L 8.5 54.6875 
L 17.484375 54.6875 
L 17.484375 21.921875 
Q 17.484375 14.15625 20.5 10.265625 
Q 23.53125 6.390625 29.59375 6.390625 
Q 36.859375 6.390625 41.078125 11.03125 
Q 45.3125 15.671875 45.3125 23.6875 
L 45.3125 54.6875 
L 54.296875 54.6875 
L 54.296875 0 
L 45.3125 0 
L 45.3125 8.40625 
Q 42.046875 3.421875 37.71875 1 
Q 33.40625 -1.421875 27.6875 -1.421875 
Q 18.265625 -1.421875 13.375 4.4375 
Q 8.5 10.296875 8.5 21.578125 
z
M 31.109375 56 
z
" id="DejaVuSans-117"/>
        <path d="M 44.28125 53.078125 
L 44.28125 44.578125 
Q 40.484375 46.53125 36.375 47.5 
Q 32.28125 48.484375 27.875 48.484375 
Q 21.1875 48.484375 17.84375 46.4375 
Q 14.5 44.390625 14.5 40.28125 
Q 14.5 37.15625 16.890625 35.375 
Q 19.28125 33.59375 26.515625 31.984375 
L 29.59375 31.296875 
Q 39.15625 29.25 43.1875 25.515625 
Q 47.21875 21.78125 47.21875 15.09375 
Q 47.21875 7.46875 41.1875 3.015625 
Q 35.15625 -1.421875 24.609375 -1.421875 
Q 20.21875 -1.421875 15.453125 -0.5625 
Q 10.6875 0.296875 5.421875 2 
L 5.421875 11.28125 
Q 10.40625 8.6875 15.234375 7.390625 
Q 20.0625 6.109375 24.8125 6.109375 
Q 31.15625 6.109375 34.5625 8.28125 
Q 37.984375 10.453125 37.984375 14.40625 
Q 37.984375 18.0625 35.515625 20.015625 
Q 33.0625 21.96875 24.703125 23.78125 
L 21.578125 24.515625 
Q 13.234375 26.265625 9.515625 29.90625 
Q 5.8125 33.546875 5.8125 39.890625 
Q 5.8125 47.609375 11.28125 51.796875 
Q 16.75 56 26.8125 56 
Q 31.78125 56 36.171875 55.265625 
Q 40.578125 54.546875 44.28125 53.078125 
z
" id="DejaVuSans-115"/>
       </defs>
       <use xlink:href="#DejaVuSans-110"/>
       <use x="63.378906" xlink:href="#DejaVuSans-101"/>
       <use x="124.902344" xlink:href="#DejaVuSans-117"/>
       <use x="188.28125" xlink:href="#DejaVuSans-114"/>
       <use x="227.144531" xlink:href="#DejaVuSans-111"/>
       <use x="288.326172" xlink:href="#DejaVuSans-110"/>
       <use x="351.705078" xlink:href="#DejaVuSans-115"/>
      </g>
     </g>
    </g>
    <g id="xtick_2">
     <g id="line2d_2">
      <g>
       <use style="stroke:#000000;stroke-width:0.8;" x="112.9565" xlink:href="#m8f12fc4547" y="198.376"/>
      </g>
     </g>
     <g id="text_2">
      <!-- bCS -->
      <g transform="translate(103.116656 212.974438)scale(0.1 -0.1)">
       <defs>
        <path d="M 48.6875 27.296875 
Q 48.6875 37.203125 44.609375 42.84375 
Q 40.53125 48.484375 33.40625 48.484375 
Q 26.265625 48.484375 22.1875 42.84375 
Q 18.109375 37.203125 18.109375 27.296875 
Q 18.109375 17.390625 22.1875 11.75 
Q 26.265625 6.109375 33.40625 6.109375 
Q 40.53125 6.109375 44.609375 11.75 
Q 48.6875 17.390625 48.6875 27.296875 
z
M 18.109375 46.390625 
Q 20.953125 51.265625 25.265625 53.625 
Q 29.59375 56 35.59375 56 
Q 45.5625 56 51.78125 48.09375 
Q 58.015625 40.1875 58.015625 27.296875 
Q 58.015625 14.40625 51.78125 6.484375 
Q 45.5625 -1.421875 35.59375 -1.421875 
Q 29.59375 -1.421875 25.265625 0.953125 
Q 20.953125 3.328125 18.109375 8.203125 
L 18.109375 0 
L 9.078125 0 
L 9.078125 75.984375 
L 18.109375 75.984375 
z
" id="DejaVuSans-98"/>
        <path d="M 64.40625 67.28125 
L 64.40625 56.890625 
Q 59.421875 61.53125 53.78125 63.8125 
Q 48.140625 66.109375 41.796875 66.109375 
Q 29.296875 66.109375 22.65625 58.46875 
Q 16.015625 50.828125 16.015625 36.375 
Q 16.015625 21.96875 22.65625 14.328125 
Q 29.296875 6.6875 41.796875 6.6875 
Q 48.140625 6.6875 53.78125 8.984375 
Q 59.421875 11.28125 64.40625 15.921875 
L 64.40625 5.609375 
Q 59.234375 2.09375 53.4375 0.328125 
Q 47.65625 -1.421875 41.21875 -1.421875 
Q 24.65625 -1.421875 15.125 8.703125 
Q 5.609375 18.84375 5.609375 36.375 
Q 5.609375 53.953125 15.125 64.078125 
Q 24.65625 74.21875 41.21875 74.21875 
Q 47.75 74.21875 53.53125 72.484375 
Q 59.328125 70.75 64.40625 67.28125 
z
" id="DejaVuSans-67"/>
        <path d="M 53.515625 70.515625 
L 53.515625 60.890625 
Q 47.90625 63.578125 42.921875 64.890625 
Q 37.9375 66.21875 33.296875 66.21875 
Q 25.25 66.21875 20.875 63.09375 
Q 16.5 59.96875 16.5 54.203125 
Q 16.5 49.359375 19.40625 46.890625 
Q 22.3125 44.4375 30.421875 42.921875 
L 36.375 41.703125 
Q 47.40625 39.59375 52.65625 34.296875 
Q 57.90625 29 57.90625 20.125 
Q 57.90625 9.515625 50.796875 4.046875 
Q 43.703125 -1.421875 29.984375 -1.421875 
Q 24.8125 -1.421875 18.96875 -0.25 
Q 13.140625 0.921875 6.890625 3.21875 
L 6.890625 13.375 
Q 12.890625 10.015625 18.65625 8.296875 
Q 24.421875 6.59375 29.984375 6.59375 
Q 38.421875 6.59375 43.015625 9.90625 
Q 47.609375 13.234375 47.609375 19.390625 
Q 47.609375 24.75 44.3125 27.78125 
Q 41.015625 30.8125 33.5 32.328125 
L 27.484375 33.5 
Q 16.453125 35.6875 11.515625 40.375 
Q 6.59375 45.0625 6.59375 53.421875 
Q 6.59375 63.09375 13.40625 68.65625 
Q 20.21875 74.21875 32.171875 74.21875 
Q 37.3125 74.21875 42.625 73.28125 
Q 47.953125 72.359375 53.515625 70.515625 
z
" id="DejaVuSans-83"/>
       </defs>
       <use xlink:href="#DejaVuSans-98"/>
       <use x="63.476562" xlink:href="#DejaVuSans-67"/>
       <use x="133.300781" xlink:href="#DejaVuSans-83"/>
      </g>
      <!-- neurons -->
      <g transform="translate(92.766656 224.17225)scale(0.1 -0.1)">
       <use xlink:href="#DejaVuSans-110"/>
       <use x="63.378906" xlink:href="#DejaVuSans-101"/>
       <use x="124.902344" xlink:href="#DejaVuSans-117"/>
       <use x="188.28125" xlink:href="#DejaVuSans-114"/>
       <use x="227.144531" xlink:href="#DejaVuSans-111"/>
       <use x="288.326172" xlink:href="#DejaVuSans-110"/>
       <use x="351.705078" xlink:href="#DejaVuSans-115"/>
      </g>
     </g>
    </g>
    <g id="text_3">
     <!-- type -->
     <g transform="translate(78.714687 237.850375)scale(0.1 -0.1)">
      <defs>
       <path d="M 32.171875 -5.078125 
Q 28.375 -14.84375 24.75 -17.8125 
Q 21.140625 -20.796875 15.09375 -20.796875 
L 7.90625 -20.796875 
L 7.90625 -13.28125 
L 13.1875 -13.28125 
Q 16.890625 -13.28125 18.9375 -11.515625 
Q 21 -9.765625 23.484375 -3.21875 
L 25.09375 0.875 
L 2.984375 54.6875 
L 12.5 54.6875 
L 29.59375 11.921875 
L 46.6875 54.6875 
L 56.203125 54.6875 
z
" id="DejaVuSans-121"/>
       <path d="M 18.109375 8.203125 
L 18.109375 -20.796875 
L 9.078125 -20.796875 
L 9.078125 54.6875 
L 18.109375 54.6875 
L 18.109375 46.390625 
Q 20.953125 51.265625 25.265625 53.625 
Q 29.59375 56 35.59375 56 
Q 45.5625 56 51.78125 48.09375 
Q 58.015625 40.1875 58.015625 27.296875 
Q 58.015625 14.40625 51.78125 6.484375 
Q 45.5625 -1.421875 35.59375 -1.421875 
Q 29.59375 -1.421875 25.265625 0.953125 
Q 20.953125 3.328125 18.109375 8.203125 
z
M 48.6875 27.296875 
Q 48.6875 37.203125 44.609375 42.84375 
Q 40.53125 48.484375 33.40625 48.484375 
Q 26.265625 48.484375 22.1875 42.84375 
Q 18.109375 37.203125 18.109375 27.296875 
Q 18.109375 17.390625 22.1875 11.75 
Q 26.265625 6.109375 33.40625 6.109375 
Q 40.53125 6.109375 44.609375 11.75 
Q 48.6875 17.390625 48.6875 27.296875 
z
" id="DejaVuSans-112"/>
      </defs>
      <use xlink:href="#DejaVuSans-116"/>
      <use x="39.208984" xlink:href="#DejaVuSans-121"/>
      <use x="98.388672" xlink:href="#DejaVuSans-112"/>
      <use x="161.865234" xlink:href="#DejaVuSans-101"/>
     </g>
    </g>
   </g>
   <g id="matplotlib.axis_2">
    <g id="ytick_1">
     <g id="line2d_3">
      <defs>
       <path d="M 0 0 
L -3.5 0 
" id="me6cd0af478" style="stroke:#000000;stroke-width:0.8;"/>
      </defs>
      <g>
       <use style="stroke:#000000;stroke-width:0.8;" x="43.742" xlink:href="#me6cd0af478" y="191.494879"/>
      </g>
     </g>
     <g id="text_4">
      <!-- 0 -->
      <g transform="translate(30.3795 195.294098)scale(0.1 -0.1)">
       <defs>
        <path d="M 31.78125 66.40625 
Q 24.171875 66.40625 20.328125 58.90625 
Q 16.5 51.421875 16.5 36.375 
Q 16.5 21.390625 20.328125 13.890625 
Q 24.171875 6.390625 31.78125 6.390625 
Q 39.453125 6.390625 43.28125 13.890625 
Q 47.125 21.390625 47.125 36.375 
Q 47.125 51.421875 43.28125 58.90625 
Q 39.453125 66.40625 31.78125 66.40625 
z
M 31.78125 74.21875 
Q 44.046875 74.21875 50.515625 64.515625 
Q 56.984375 54.828125 56.984375 36.375 
Q 56.984375 17.96875 50.515625 8.265625 
Q 44.046875 -1.421875 31.78125 -1.421875 
Q 19.53125 -1.421875 13.0625 8.265625 
Q 6.59375 17.96875 6.59375 36.375 
Q 6.59375 54.828125 13.0625 64.515625 
Q 19.53125 74.21875 31.78125 74.21875 
z
" id="DejaVuSans-48"/>
       </defs>
       <use xlink:href="#DejaVuSans-48"/>
      </g>
     </g>
    </g>
    <g id="ytick_2">
     <g id="line2d_4">
      <g>
       <use style="stroke:#000000;stroke-width:0.8;" x="43.742" xlink:href="#me6cd0af478" y="167.95224"/>
      </g>
     </g>
     <g id="text_5">
      <!-- 1 -->
      <g transform="translate(30.3795 171.751458)scale(0.1 -0.1)">
       <defs>
        <path d="M 12.40625 8.296875 
L 28.515625 8.296875 
L 28.515625 63.921875 
L 10.984375 60.40625 
L 10.984375 69.390625 
L 28.421875 72.90625 
L 38.28125 72.90625 
L 38.28125 8.296875 
L 54.390625 8.296875 
L 54.390625 0 
L 12.40625 0 
z
" id="DejaVuSans-49"/>
       </defs>
       <use xlink:href="#DejaVuSans-49"/>
      </g>
     </g>
    </g>
    <g id="ytick_3">
     <g id="line2d_5">
      <g>
       <use style="stroke:#000000;stroke-width:0.8;" x="43.742" xlink:href="#me6cd0af478" y="144.409601"/>
      </g>
     </g>
     <g id="text_6">
      <!-- 2 -->
      <g transform="translate(30.3795 148.208819)scale(0.1 -0.1)">
       <defs>
        <path d="M 19.1875 8.296875 
L 53.609375 8.296875 
L 53.609375 0 
L 7.328125 0 
L 7.328125 8.296875 
Q 12.9375 14.109375 22.625 23.890625 
Q 32.328125 33.6875 34.8125 36.53125 
Q 39.546875 41.84375 41.421875 45.53125 
Q 43.3125 49.21875 43.3125 52.78125 
Q 43.3125 58.59375 39.234375 62.25 
Q 35.15625 65.921875 28.609375 65.921875 
Q 23.96875 65.921875 18.8125 64.3125 
Q 13.671875 62.703125 7.8125 59.421875 
L 7.8125 69.390625 
Q 13.765625 71.78125 18.9375 73 
Q 24.125 74.21875 28.421875 74.21875 
Q 39.75 74.21875 46.484375 68.546875 
Q 53.21875 62.890625 53.21875 53.421875 
Q 53.21875 48.921875 51.53125 44.890625 
Q 49.859375 40.875 45.40625 35.40625 
Q 44.1875 33.984375 37.640625 27.21875 
Q 31.109375 20.453125 19.1875 8.296875 
z
" id="DejaVuSans-50"/>
       </defs>
       <use xlink:href="#DejaVuSans-50"/>
      </g>
     </g>
    </g>
    <g id="ytick_4">
     <g id="line2d_6">
      <g>
       <use style="stroke:#000000;stroke-width:0.8;" x="43.742" xlink:href="#me6cd0af478" y="120.866961"/>
      </g>
     </g>
     <g id="text_7">
      <!-- 3 -->
      <g transform="translate(30.3795 124.66618)scale(0.1 -0.1)">
       <defs>
        <path d="M 40.578125 39.3125 
Q 47.65625 37.796875 51.625 33 
Q 55.609375 28.21875 55.609375 21.1875 
Q 55.609375 10.40625 48.1875 4.484375 
Q 40.765625 -1.421875 27.09375 -1.421875 
Q 22.515625 -1.421875 17.65625 -0.515625 
Q 12.796875 0.390625 7.625 2.203125 
L 7.625 11.71875 
Q 11.71875 9.328125 16.59375 8.109375 
Q 21.484375 6.890625 26.8125 6.890625 
Q 36.078125 6.890625 40.9375 10.546875 
Q 45.796875 14.203125 45.796875 21.1875 
Q 45.796875 27.640625 41.28125 31.265625 
Q 36.765625 34.90625 28.71875 34.90625 
L 20.21875 34.90625 
L 20.21875 43.015625 
L 29.109375 43.015625 
Q 36.375 43.015625 40.234375 45.921875 
Q 44.09375 48.828125 44.09375 54.296875 
Q 44.09375 59.90625 40.109375 62.90625 
Q 36.140625 65.921875 28.71875 65.921875 
Q 24.65625 65.921875 20.015625 65.03125 
Q 15.375 64.15625 9.8125 62.3125 
L 9.8125 71.09375 
Q 15.4375 72.65625 20.34375 73.4375 
Q 25.25 74.21875 29.59375 74.21875 
Q 40.828125 74.21875 47.359375 69.109375 
Q 53.90625 64.015625 53.90625 55.328125 
Q 53.90625 49.265625 50.4375 45.09375 
Q 46.96875 40.921875 40.578125 39.3125 
z
" id="DejaVuSans-51"/>
       </defs>
       <use xlink:href="#DejaVuSans-51"/>
      </g>
     </g>
    </g>
    <g id="ytick_5">
     <g id="line2d_7">
      <g>
       <use style="stroke:#000000;stroke-width:0.8;" x="43.742" xlink:href="#me6cd0af478" y="97.324322"/>
      </g>
     </g>
     <g id="text_8">
      <!-- 4 -->
      <g transform="translate(30.3795 101.123541)scale(0.1 -0.1)">
       <defs>
        <path d="M 37.796875 64.3125 
L 12.890625 25.390625 
L 37.796875 25.390625 
z
M 35.203125 72.90625 
L 47.609375 72.90625 
L 47.609375 25.390625 
L 58.015625 25.390625 
L 58.015625 17.1875 
L 47.609375 17.1875 
L 47.609375 0 
L 37.796875 0 
L 37.796875 17.1875 
L 4.890625 17.1875 
L 4.890625 26.703125 
z
" id="DejaVuSans-52"/>
       </defs>
       <use xlink:href="#DejaVuSans-52"/>
      </g>
     </g>
    </g>
    <g id="ytick_6">
     <g id="line2d_8">
      <g>
       <use style="stroke:#000000;stroke-width:0.8;" x="43.742" xlink:href="#me6cd0af478" y="73.781683"/>
      </g>
     </g>
     <g id="text_9">
      <!-- 5 -->
      <g transform="translate(30.3795 77.580902)scale(0.1 -0.1)">
       <defs>
        <path d="M 10.796875 72.90625 
L 49.515625 72.90625 
L 49.515625 64.59375 
L 19.828125 64.59375 
L 19.828125 46.734375 
Q 21.96875 47.46875 24.109375 47.828125 
Q 26.265625 48.1875 28.421875 48.1875 
Q 40.625 48.1875 47.75 41.5 
Q 54.890625 34.8125 54.890625 23.390625 
Q 54.890625 11.625 47.5625 5.09375 
Q 40.234375 -1.421875 26.90625 -1.421875 
Q 22.3125 -1.421875 17.546875 -0.640625 
Q 12.796875 0.140625 7.71875 1.703125 
L 7.71875 11.625 
Q 12.109375 9.234375 16.796875 8.0625 
Q 21.484375 6.890625 26.703125 6.890625 
Q 35.15625 6.890625 40.078125 11.328125 
Q 45.015625 15.765625 45.015625 23.390625 
Q 45.015625 31 40.078125 35.4375 
Q 35.15625 39.890625 26.703125 39.890625 
Q 22.75 39.890625 18.8125 39.015625 
Q 14.890625 38.140625 10.796875 36.28125 
z
" id="DejaVuSans-53"/>
       </defs>
       <use xlink:href="#DejaVuSans-53"/>
      </g>
     </g>
    </g>
    <g id="ytick_7">
     <g id="line2d_9">
      <g>
       <use style="stroke:#000000;stroke-width:0.8;" x="43.742" xlink:href="#me6cd0af478" y="50.239044"/>
      </g>
     </g>
     <g id="text_10">
      <!-- 6 -->
      <g transform="translate(30.3795 54.038263)scale(0.1 -0.1)">
       <defs>
        <path d="M 33.015625 40.375 
Q 26.375 40.375 22.484375 35.828125 
Q 18.609375 31.296875 18.609375 23.390625 
Q 18.609375 15.53125 22.484375 10.953125 
Q 26.375 6.390625 33.015625 6.390625 
Q 39.65625 6.390625 43.53125 10.953125 
Q 47.40625 15.53125 47.40625 23.390625 
Q 47.40625 31.296875 43.53125 35.828125 
Q 39.65625 40.375 33.015625 40.375 
z
M 52.59375 71.296875 
L 52.59375 62.3125 
Q 48.875 64.0625 45.09375 64.984375 
Q 41.3125 65.921875 37.59375 65.921875 
Q 27.828125 65.921875 22.671875 59.328125 
Q 17.53125 52.734375 16.796875 39.40625 
Q 19.671875 43.65625 24.015625 45.921875 
Q 28.375 48.1875 33.59375 48.1875 
Q 44.578125 48.1875 50.953125 41.515625 
Q 57.328125 34.859375 57.328125 23.390625 
Q 57.328125 12.15625 50.6875 5.359375 
Q 44.046875 -1.421875 33.015625 -1.421875 
Q 20.359375 -1.421875 13.671875 8.265625 
Q 6.984375 17.96875 6.984375 36.375 
Q 6.984375 53.65625 15.1875 63.9375 
Q 23.390625 74.21875 37.203125 74.21875 
Q 40.921875 74.21875 44.703125 73.484375 
Q 48.484375 72.75 52.59375 71.296875 
z
" id="DejaVuSans-54"/>
       </defs>
       <use xlink:href="#DejaVuSans-54"/>
      </g>
     </g>
    </g>
    <g id="ytick_8">
     <g id="line2d_10">
      <g>
       <use style="stroke:#000000;stroke-width:0.8;" x="43.742" xlink:href="#me6cd0af478" y="26.696405"/>
      </g>
     </g>
     <g id="text_11">
      <!-- 7 -->
      <g transform="translate(30.3795 30.495623)scale(0.1 -0.1)">
       <defs>
        <path d="M 8.203125 72.90625 
L 55.078125 72.90625 
L 55.078125 68.703125 
L 28.609375 0 
L 18.3125 0 
L 43.21875 64.59375 
L 8.203125 64.59375 
z
" id="DejaVuSans-55"/>
       </defs>
       <use xlink:href="#DejaVuSans-55"/>
      </g>
     </g>
    </g>
    <g id="text_12">
     <!-- Axon area ($\mu$m$^2$) -->
     <g transform="translate(24.2795 152.998)rotate(-90)scale(0.1 -0.1)">
      <defs>
       <path d="M 34.1875 63.1875 
L 20.796875 26.90625 
L 47.609375 26.90625 
z
M 28.609375 72.90625 
L 39.796875 72.90625 
L 67.578125 0 
L 57.328125 0 
L 50.6875 18.703125 
L 17.828125 18.703125 
L 11.1875 0 
L 0.78125 0 
z
" id="DejaVuSans-65"/>
       <path d="M 54.890625 54.6875 
L 35.109375 28.078125 
L 55.90625 0 
L 45.3125 0 
L 29.390625 21.484375 
L 13.484375 0 
L 2.875 0 
L 24.125 28.609375 
L 4.6875 54.6875 
L 15.28125 54.6875 
L 29.78125 35.203125 
L 44.28125 54.6875 
z
" id="DejaVuSans-120"/>
       <path id="DejaVuSans-32"/>
       <path d="M 34.28125 27.484375 
Q 23.390625 27.484375 19.1875 25 
Q 14.984375 22.515625 14.984375 16.5 
Q 14.984375 11.71875 18.140625 8.90625 
Q 21.296875 6.109375 26.703125 6.109375 
Q 34.1875 6.109375 38.703125 11.40625 
Q 43.21875 16.703125 43.21875 25.484375 
L 43.21875 27.484375 
z
M 52.203125 31.203125 
L 52.203125 0 
L 43.21875 0 
L 43.21875 8.296875 
Q 40.140625 3.328125 35.546875 0.953125 
Q 30.953125 -1.421875 24.3125 -1.421875 
Q 15.921875 -1.421875 10.953125 3.296875 
Q 6 8.015625 6 15.921875 
Q 6 25.140625 12.171875 29.828125 
Q 18.359375 34.515625 30.609375 34.515625 
L 43.21875 34.515625 
L 43.21875 35.40625 
Q 43.21875 41.609375 39.140625 45 
Q 35.0625 48.390625 27.6875 48.390625 
Q 23 48.390625 18.546875 47.265625 
Q 14.109375 46.140625 10.015625 43.890625 
L 10.015625 52.203125 
Q 14.9375 54.109375 19.578125 55.046875 
Q 24.21875 56 28.609375 56 
Q 40.484375 56 46.34375 49.84375 
Q 52.203125 43.703125 52.203125 31.203125 
z
" id="DejaVuSans-97"/>
       <path d="M 31 75.875 
Q 24.46875 64.65625 21.28125 53.65625 
Q 18.109375 42.671875 18.109375 31.390625 
Q 18.109375 20.125 21.3125 9.0625 
Q 24.515625 -2 31 -13.1875 
L 23.1875 -13.1875 
Q 15.875 -1.703125 12.234375 9.375 
Q 8.59375 20.453125 8.59375 31.390625 
Q 8.59375 42.28125 12.203125 53.3125 
Q 15.828125 64.359375 23.1875 75.875 
z
" id="DejaVuSans-40"/>
       <path d="M -1.3125 -20.796875 
L 13.375 54.6875 
L 22.40625 54.6875 
L 15.765625 20.65625 
Q 15.578125 19.625 15.421875 18.359375 
Q 15.28125 17.09375 15.28125 15.828125 
Q 15.28125 11.28125 18.140625 8.828125 
Q 21 6.390625 26.3125 6.390625 
Q 33.546875 6.390625 37.984375 10.484375 
Q 42.4375 14.59375 44 22.796875 
L 50.203125 54.6875 
L 59.1875 54.6875 
L 51.03125 12.640625 
Q 50.828125 11.71875 50.75 11.03125 
Q 50.6875 10.359375 50.6875 9.8125 
Q 50.6875 8.296875 51.296875 7.59375 
Q 51.90625 6.890625 53.21875 6.890625 
Q 53.71875 6.890625 54.5625 7.125 
Q 55.421875 7.375 56.984375 8.015625 
L 55.609375 0.78125 
Q 53.46875 -0.296875 51.515625 -0.859375 
Q 49.5625 -1.421875 47.703125 -1.421875 
Q 44.484375 -1.421875 42.65625 0.625 
Q 40.828125 2.6875 40.828125 6.296875 
Q 38.09375 2.390625 34.296875 0.484375 
Q 30.515625 -1.421875 25.390625 -1.421875 
Q 20.84375 -1.421875 17.453125 0.671875 
Q 14.0625 2.78125 12.984375 6.203125 
L 7.71875 -20.796875 
z
" id="DejaVuSans-Oblique-956"/>
       <path d="M 52 44.1875 
Q 55.375 50.25 60.0625 53.125 
Q 64.75 56 71.09375 56 
Q 79.640625 56 84.28125 50.015625 
Q 88.921875 44.046875 88.921875 33.015625 
L 88.921875 0 
L 79.890625 0 
L 79.890625 32.71875 
Q 79.890625 40.578125 77.09375 44.375 
Q 74.3125 48.1875 68.609375 48.1875 
Q 61.625 48.1875 57.5625 43.546875 
Q 53.515625 38.921875 53.515625 30.90625 
L 53.515625 0 
L 44.484375 0 
L 44.484375 32.71875 
Q 44.484375 40.625 41.703125 44.40625 
Q 38.921875 48.1875 33.109375 48.1875 
Q 26.21875 48.1875 22.15625 43.53125 
Q 18.109375 38.875 18.109375 30.90625 
L 18.109375 0 
L 9.078125 0 
L 9.078125 54.6875 
L 18.109375 54.6875 
L 18.109375 46.1875 
Q 21.1875 51.21875 25.484375 53.609375 
Q 29.78125 56 35.6875 56 
Q 41.65625 56 45.828125 52.96875 
Q 50 49.953125 52 44.1875 
z
" id="DejaVuSans-109"/>
       <path d="M 8.015625 75.875 
L 15.828125 75.875 
Q 23.140625 64.359375 26.78125 53.3125 
Q 30.421875 42.28125 30.421875 31.390625 
Q 30.421875 20.453125 26.78125 9.375 
Q 23.140625 -1.703125 15.828125 -13.1875 
L 8.015625 -13.1875 
Q 14.5 -2 17.703125 9.0625 
Q 20.90625 20.125 20.90625 31.390625 
Q 20.90625 42.671875 17.703125 53.65625 
Q 14.5 64.65625 8.015625 75.875 
z
" id="DejaVuSans-41"/>
      </defs>
      <use transform="translate(0 0.765625)" xlink:href="#DejaVuSans-65"/>
      <use transform="translate(68.408203 0.765625)" xlink:href="#DejaVuSans-120"/>
      <use transform="translate(127.587891 0.765625)" xlink:href="#DejaVuSans-111"/>
      <use transform="translate(188.769531 0.765625)" xlink:href="#DejaVuSans-110"/>
      <use transform="translate(252.148438 0.765625)" xlink:href="#DejaVuSans-32"/>
      <use transform="translate(283.935547 0.765625)" xlink:href="#DejaVuSans-97"/>
      <use transform="translate(345.214844 0.765625)" xlink:href="#DejaVuSans-114"/>
      <use transform="translate(386.328125 0.765625)" xlink:href="#DejaVuSans-101"/>
      <use transform="translate(447.851562 0.765625)" xlink:href="#DejaVuSans-97"/>
      <use transform="translate(509.130859 0.765625)" xlink:href="#DejaVuSans-32"/>
      <use transform="translate(540.917969 0.765625)" xlink:href="#DejaVuSans-40"/>
      <use transform="translate(579.931641 0.765625)" xlink:href="#DejaVuSans-Oblique-956"/>
      <use transform="translate(643.554688 0.765625)" xlink:href="#DejaVuSans-109"/>
      <use transform="translate(741.923828 39.046875)scale(0.7)" xlink:href="#DejaVuSans-50"/>
      <use transform="translate(789.194336 0.765625)" xlink:href="#DejaVuSans-41"/>
     </g>
    </g>
   </g>
   <g id="patch_3">
    <path d="M 43.742 198.376 
L 43.742 24.72 
" style="fill:none;stroke:#000000;stroke-linecap:square;stroke-linejoin:miter;stroke-width:0.8;"/>
   </g>
   <g id="patch_4">
    <path d="M 43.742 198.376 
L 136.028 198.376 
" style="fill:none;stroke:#000000;stroke-linecap:square;stroke-linejoin:miter;stroke-width:0.8;"/>
   </g>
   <g id="PathCollection_1">
    <defs>
     <path d="M 0 2.5 
C 0.663008 2.5 1.29895 2.236584 1.767767 1.767767 
C 2.236584 1.29895 2.5 0.663008 2.5 -0 
C 2.5 -0.663008 2.236584 -1.29895 1.767767 -1.767767 
C 1.29895 -2.236584 0.663008 -2.5 0 -2.5 
C -0.663008 -2.5 -1.29895 -2.236584 -1.767767 -1.767767 
C -2.236584 -1.29895 -2.5 -0.663008 -2.5 0 
C -2.5 0.663008 -2.236584 1.29895 -1.767767 1.767767 
C -1.29895 2.236584 -0.663008 2.5 0 2.5 
z
" id="C0_0_d3bf0016d2"/>
    </defs>
    <g clip-path="url(#p1936f90bb5)">
     <use style="fill:#00cccc;" x="66.61201" xlink:href="#C0_0_d3bf0016d2" y="189.430974"/>
    </g>
    <g clip-path="url(#p1936f90bb5)">
     <use style="fill:#00cccc;" x="65.766186" xlink:href="#C0_0_d3bf0016d2" y="189.948912"/>
    </g>
    <g clip-path="url(#p1936f90bb5)">
     <use style="fill:#00cccc;" x="62.502868" xlink:href="#C0_0_d3bf0016d2" y="182.995986"/>
    </g>
    <g clip-path="url(#p1936f90bb5)">
     <use style="fill:#00cccc;" x="70.041632" xlink:href="#C0_0_d3bf0016d2" y="179.527371"/>
    </g>
    <g clip-path="url(#p1936f90bb5)">
     <use style="fill:#00cccc;" x="64.577942" xlink:href="#C0_0_d3bf0016d2" y="179.990376"/>
    </g>
    <g clip-path="url(#p1936f90bb5)">
     <use style="fill:#00cccc;" x="69.809222" xlink:href="#C0_0_d3bf0016d2" y="186.700028"/>
    </g>
    <g clip-path="url(#p1936f90bb5)">
     <use style="fill:#00cccc;" x="67.773018" xlink:href="#C0_0_d3bf0016d2" y="185.41303"/>
    </g>
    <g clip-path="url(#p1936f90bb5)">
     <use style="fill:#00cccc;" x="66.757751" xlink:href="#C0_0_d3bf0016d2" y="185.248232"/>
    </g>
    <g clip-path="url(#p1936f90bb5)">
     <use style="fill:#00cccc;" x="69.123784" xlink:href="#C0_0_d3bf0016d2" y="182.305402"/>
    </g>
    <g clip-path="url(#p1936f90bb5)">
     <use style="fill:#00cccc;" x="66.376016" xlink:href="#C0_0_d3bf0016d2" y="184.180966"/>
    </g>
    <g clip-path="url(#p1936f90bb5)">
     <use style="fill:#00cccc;" x="65.075974" xlink:href="#C0_0_d3bf0016d2" y="181.89733"/>
    </g>
    <g clip-path="url(#p1936f90bb5)">
     <use style="fill:#00cccc;" x="64.725827" xlink:href="#C0_0_d3bf0016d2" y="175.128036"/>
    </g>
    <g clip-path="url(#p1936f90bb5)">
     <use style="fill:#00cccc;" x="65.643759" xlink:href="#C0_0_d3bf0016d2" y="184.392849"/>
    </g>
    <g clip-path="url(#p1936f90bb5)">
     <use style="fill:#00cccc;" x="68.423505" xlink:href="#C0_0_d3bf0016d2" y="185.789713"/>
    </g>
    <g clip-path="url(#p1936f90bb5)">
     <use style="fill:#00cccc;" x="65.767763" xlink:href="#C0_0_d3bf0016d2" y="177.651807"/>
    </g>
    <g clip-path="url(#p1936f90bb5)">
     <use style="fill:#00cccc;" x="69.312417" xlink:href="#C0_0_d3bf0016d2" y="176.945528"/>
    </g>
    <g clip-path="url(#p1936f90bb5)">
     <use style="fill:#00cccc;" x="66.280071" xlink:href="#C0_0_d3bf0016d2" y="185.923121"/>
    </g>
    <g clip-path="url(#p1936f90bb5)">
     <use style="fill:#00cccc;" x="68.760805" xlink:href="#C0_0_d3bf0016d2" y="163.275102"/>
    </g>
    <g clip-path="url(#p1936f90bb5)">
     <use style="fill:#00cccc;" x="69.591239" xlink:href="#C0_0_d3bf0016d2" y="166.155152"/>
    </g>
    <g clip-path="url(#p1936f90bb5)">
     <use style="fill:#00cccc;" x="70.502596" xlink:href="#C0_0_d3bf0016d2" y="185.962359"/>
    </g>
    <g clip-path="url(#p1936f90bb5)">
     <use style="fill:#00cccc;" x="69.183752" xlink:href="#C0_0_d3bf0016d2" y="181.489257"/>
    </g>
    <g clip-path="url(#p1936f90bb5)">
     <use style="fill:#00cccc;" x="62.985648" xlink:href="#C0_0_d3bf0016d2" y="172.393951"/>
    </g>
    <g clip-path="url(#p1936f90bb5)">
     <use style="fill:#00cccc;" x="69.887972" xlink:href="#C0_0_d3bf0016d2" y="173.00606"/>
    </g>
    <g clip-path="url(#p1936f90bb5)">
     <use style="fill:#00cccc;" x="62.35349" xlink:href="#C0_0_d3bf0016d2" y="182.446658"/>
    </g>
    <g clip-path="url(#p1936f90bb5)">
     <use style="fill:#00cccc;" x="63.678018" xlink:href="#C0_0_d3bf0016d2" y="169.372646"/>
    </g>
    <g clip-path="url(#p1936f90bb5)">
     <use style="fill:#00cccc;" x="69.501069" xlink:href="#C0_0_d3bf0016d2" y="180.508314"/>
    </g>
    <g clip-path="url(#p1936f90bb5)">
     <use style="fill:#00cccc;" x="63.193973" xlink:href="#C0_0_d3bf0016d2" y="133.947252"/>
    </g>
    <g clip-path="url(#p1936f90bb5)">
     <use style="fill:#00cccc;" x="65.989135" xlink:href="#C0_0_d3bf0016d2" y="175.995975"/>
    </g>
    <g clip-path="url(#p1936f90bb5)">
     <use style="fill:#00cccc;" x="63.200152" xlink:href="#C0_0_d3bf0016d2" y="161.967701"/>
    </g>
    <g clip-path="url(#p1936f90bb5)">
     <use style="fill:#00cccc;" x="69.567656" xlink:href="#C0_0_d3bf0016d2" y="166.243044"/>
    </g>
    <g clip-path="url(#p1936f90bb5)">
     <use style="fill:#00cccc;" x="69.968234" xlink:href="#C0_0_d3bf0016d2" y="177.745978"/>
    </g>
    <g clip-path="url(#p1936f90bb5)">
     <use style="fill:#00cccc;" x="70.420054" xlink:href="#C0_0_d3bf0016d2" y="173.971308"/>
    </g>
    <g clip-path="url(#p1936f90bb5)">
     <use style="fill:#00cccc;" x="66.042372" xlink:href="#C0_0_d3bf0016d2" y="173.084535"/>
    </g>
    <g clip-path="url(#p1936f90bb5)">
     <use style="fill:#00cccc;" x="71.357825" xlink:href="#C0_0_d3bf0016d2" y="177.408533"/>
    </g>
    <g clip-path="url(#p1936f90bb5)">
     <use style="fill:#00cccc;" x="70.157187" xlink:href="#C0_0_d3bf0016d2" y="159.884962"/>
    </g>
    <g clip-path="url(#p1936f90bb5)">
     <use style="fill:#00cccc;" x="68.172114" xlink:href="#C0_0_d3bf0016d2" y="175.886109"/>
    </g>
    <g clip-path="url(#p1936f90bb5)">
     <use style="fill:#00cccc;" x="66.251688" xlink:href="#C0_0_d3bf0016d2" y="164.854028"/>
    </g>
    <g clip-path="url(#p1936f90bb5)">
     <use style="fill:#00cccc;" x="70.475387" xlink:href="#C0_0_d3bf0016d2" y="161.148417"/>
    </g>
    <g clip-path="url(#p1936f90bb5)">
     <use style="fill:#00cccc;" x="66.709797" xlink:href="#C0_0_d3bf0016d2" y="153.482934"/>
    </g>
    <g clip-path="url(#p1936f90bb5)">
     <use style="fill:#00cccc;" x="63.692678" xlink:href="#C0_0_d3bf0016d2" y="146.547272"/>
    </g>
    <g clip-path="url(#p1936f90bb5)">
     <use style="fill:#00cccc;" x="68.486082" xlink:href="#C0_0_d3bf0016d2" y="145.007584"/>
    </g>
    <g clip-path="url(#p1936f90bb5)">
     <use style="fill:#00cccc;" x="67.636779" xlink:href="#C0_0_d3bf0016d2" y="155.323968"/>
    </g>
    <g clip-path="url(#p1936f90bb5)">
     <use style="fill:#00cccc;" x="69.759375" xlink:href="#C0_0_d3bf0016d2" y="158.111417"/>
    </g>
    <g clip-path="url(#p1936f90bb5)">
     <use style="fill:#00cccc;" x="62.892343" xlink:href="#C0_0_d3bf0016d2" y="190.482545"/>
    </g>
   </g>
   <g id="PathCollection_2">
    <defs>
     <path d="M 0 2.5 
C 0.663008 2.5 1.29895 2.236584 1.767767 1.767767 
C 2.236584 1.29895 2.5 0.663008 2.5 -0 
C 2.5 -0.663008 2.236584 -1.29895 1.767767 -1.767767 
C 1.29895 -2.236584 0.663008 -2.5 0 -2.5 
C -0.663008 -2.5 -1.29895 -2.236584 -1.767767 -1.767767 
C -2.236584 -1.29895 -2.5 -0.663008 -2.5 0 
C -2.5 0.663008 -2.236584 1.29895 -1.767767 1.767767 
C -1.29895 2.236584 -0.663008 2.5 0 2.5 
z
" id="C1_0_24243fb528"/>
    </defs>
    <g clip-path="url(#p1936f90bb5)">
     <use style="fill:#ff0080;" x="111.820741" xlink:href="#C1_0_24243fb528" y="113.639371"/>
    </g>
    <g clip-path="url(#p1936f90bb5)">
     <use style="fill:#ff0080;" x="114.041322" xlink:href="#C1_0_24243fb528" y="131.607113"/>
    </g>
   </g>
   <g id="text_13">
    <!-- nerve = left_T1 -->
    <g transform="translate(51.346719 18.72)scale(0.1 -0.1)">
     <defs>
      <path d="M 2.984375 54.6875 
L 12.5 54.6875 
L 29.59375 8.796875 
L 46.6875 54.6875 
L 56.203125 54.6875 
L 35.6875 0 
L 23.484375 0 
z
" id="DejaVuSans-118"/>
      <path d="M 10.59375 45.40625 
L 73.1875 45.40625 
L 73.1875 37.203125 
L 10.59375 37.203125 
z
M 10.59375 25.484375 
L 73.1875 25.484375 
L 73.1875 17.1875 
L 10.59375 17.1875 
z
" id="DejaVuSans-61"/>
      <path d="M 9.421875 75.984375 
L 18.40625 75.984375 
L 18.40625 0 
L 9.421875 0 
z
" id="DejaVuSans-108"/>
      <path d="M 37.109375 75.984375 
L 37.109375 68.5 
L 28.515625 68.5 
Q 23.6875 68.5 21.796875 66.546875 
Q 19.921875 64.59375 19.921875 59.515625 
L 19.921875 54.6875 
L 34.71875 54.6875 
L 34.71875 47.703125 
L 19.921875 47.703125 
L 19.921875 0 
L 10.890625 0 
L 10.890625 47.703125 
L 2.296875 47.703125 
L 2.296875 54.6875 
L 10.890625 54.6875 
L 10.890625 58.5 
Q 10.890625 67.625 15.140625 71.796875 
Q 19.390625 75.984375 28.609375 75.984375 
z
" id="DejaVuSans-102"/>
      <path d="M 50.984375 -16.609375 
L 50.984375 -23.578125 
L -0.984375 -23.578125 
L -0.984375 -16.609375 
z
" id="DejaVuSans-95"/>
      <path d="M -0.296875 72.90625 
L 61.375 72.90625 
L 61.375 64.59375 
L 35.5 64.59375 
L 35.5 0 
L 25.59375 0 
L 25.59375 64.59375 
L -0.296875 64.59375 
z
" id="DejaVuSans-84"/>
     </defs>
     <use xlink:href="#DejaVuSans-110"/>
     <use x="63.378906" xlink:href="#DejaVuSans-101"/>
     <use x="124.902344" xlink:href="#DejaVuSans-114"/>
     <use x="166.015625" xlink:href="#DejaVuSans-118"/>
     <use x="225.195312" xlink:href="#DejaVuSans-101"/>
     <use x="286.71875" xlink:href="#DejaVuSans-32"/>
     <use x="318.505859" xlink:href="#DejaVuSans-61"/>
     <use x="402.294922" xlink:href="#DejaVuSans-32"/>
     <use x="434.082031" xlink:href="#DejaVuSans-108"/>
     <use x="461.865234" xlink:href="#DejaVuSans-101"/>
     <use x="523.388672" xlink:href="#DejaVuSans-102"/>
     <use x="556.84375" xlink:href="#DejaVuSans-116"/>
     <use x="596.052734" xlink:href="#DejaVuSans-95"/>
     <use x="646.052734" xlink:href="#DejaVuSans-84"/>
     <use x="707.136719" xlink:href="#DejaVuSans-49"/>
    </g>
   </g>
  </g>
  <g id="axes_2">
   <g id="patch_5">
    <path d="M 150.328 198.376 
L 242.614 198.376 
L 242.614 24.72 
L 150.328 24.72 
z
" style="fill:#ffffff;"/>
   </g>
   <g id="matplotlib.axis_3">
    <g id="xtick_3">
     <g id="line2d_11">
      <g>
       <use style="stroke:#000000;stroke-width:0.8;" x="173.3995" xlink:href="#m8f12fc4547" y="198.376"/>
      </g>
     </g>
     <g id="text_14">
      <!-- Motor -->
      <g transform="translate(158.951063 212.974438)scale(0.1 -0.1)">
       <use xlink:href="#DejaVuSans-77"/>
       <use x="86.279297" xlink:href="#DejaVuSans-111"/>
       <use x="147.460938" xlink:href="#DejaVuSans-116"/>
       <use x="186.669922" xlink:href="#DejaVuSans-111"/>
       <use x="247.851562" xlink:href="#DejaVuSans-114"/>
      </g>
      <!-- neurons -->
      <g transform="translate(153.209656 224.17225)scale(0.1 -0.1)">
       <use xlink:href="#DejaVuSans-110"/>
       <use x="63.378906" xlink:href="#DejaVuSans-101"/>
       <use x="124.902344" xlink:href="#DejaVuSans-117"/>
       <use x="188.28125" xlink:href="#DejaVuSans-114"/>
       <use x="227.144531" xlink:href="#DejaVuSans-111"/>
       <use x="288.326172" xlink:href="#DejaVuSans-110"/>
       <use x="351.705078" xlink:href="#DejaVuSans-115"/>
      </g>
     </g>
    </g>
    <g id="xtick_4">
     <g id="line2d_12">
      <g>
       <use style="stroke:#000000;stroke-width:0.8;" x="219.5425" xlink:href="#m8f12fc4547" y="198.376"/>
      </g>
     </g>
     <g id="text_15">
      <!-- bCS -->
      <g transform="translate(209.702656 212.974438)scale(0.1 -0.1)">
       <use xlink:href="#DejaVuSans-98"/>
       <use x="63.476562" xlink:href="#DejaVuSans-67"/>
       <use x="133.300781" xlink:href="#DejaVuSans-83"/>
      </g>
      <!-- neurons -->
      <g transform="translate(199.352656 224.17225)scale(0.1 -0.1)">
       <use xlink:href="#DejaVuSans-110"/>
       <use x="63.378906" xlink:href="#DejaVuSans-101"/>
       <use x="124.902344" xlink:href="#DejaVuSans-117"/>
       <use x="188.28125" xlink:href="#DejaVuSans-114"/>
       <use x="227.144531" xlink:href="#DejaVuSans-111"/>
       <use x="288.326172" xlink:href="#DejaVuSans-110"/>
       <use x="351.705078" xlink:href="#DejaVuSans-115"/>
      </g>
     </g>
    </g>
    <g id="text_16">
     <!-- type -->
     <g transform="translate(185.300688 237.850375)scale(0.1 -0.1)">
      <use xlink:href="#DejaVuSans-116"/>
      <use x="39.208984" xlink:href="#DejaVuSans-121"/>
      <use x="98.388672" xlink:href="#DejaVuSans-112"/>
      <use x="161.865234" xlink:href="#DejaVuSans-101"/>
     </g>
    </g>
   </g>
   <g id="matplotlib.axis_4">
    <g id="ytick_9">
     <g id="line2d_13">
      <g>
       <use style="stroke:#000000;stroke-width:0.8;" x="150.328" xlink:href="#me6cd0af478" y="191.494879"/>
      </g>
     </g>
    </g>
    <g id="ytick_10">
     <g id="line2d_14">
      <g>
       <use style="stroke:#000000;stroke-width:0.8;" x="150.328" xlink:href="#me6cd0af478" y="167.95224"/>
      </g>
     </g>
    </g>
    <g id="ytick_11">
     <g id="line2d_15">
      <g>
       <use style="stroke:#000000;stroke-width:0.8;" x="150.328" xlink:href="#me6cd0af478" y="144.409601"/>
      </g>
     </g>
    </g>
    <g id="ytick_12">
     <g id="line2d_16">
      <g>
       <use style="stroke:#000000;stroke-width:0.8;" x="150.328" xlink:href="#me6cd0af478" y="120.866961"/>
      </g>
     </g>
    </g>
    <g id="ytick_13">
     <g id="line2d_17">
      <g>
       <use style="stroke:#000000;stroke-width:0.8;" x="150.328" xlink:href="#me6cd0af478" y="97.324322"/>
      </g>
     </g>
    </g>
    <g id="ytick_14">
     <g id="line2d_18">
      <g>
       <use style="stroke:#000000;stroke-width:0.8;" x="150.328" xlink:href="#me6cd0af478" y="73.781683"/>
      </g>
     </g>
    </g>
    <g id="ytick_15">
     <g id="line2d_19">
      <g>
       <use style="stroke:#000000;stroke-width:0.8;" x="150.328" xlink:href="#me6cd0af478" y="50.239044"/>
      </g>
     </g>
    </g>
    <g id="ytick_16">
     <g id="line2d_20">
      <g>
       <use style="stroke:#000000;stroke-width:0.8;" x="150.328" xlink:href="#me6cd0af478" y="26.696405"/>
      </g>
     </g>
    </g>
   </g>
   <g id="patch_6">
    <path d="M 150.328 198.376 
L 150.328 24.72 
" style="fill:none;stroke:#000000;stroke-linecap:square;stroke-linejoin:miter;stroke-width:0.8;"/>
   </g>
   <g id="patch_7">
    <path d="M 150.328 198.376 
L 242.614 198.376 
" style="fill:none;stroke:#000000;stroke-linecap:square;stroke-linejoin:miter;stroke-width:0.8;"/>
   </g>
   <g id="PathCollection_3">
    <defs>
     <path d="M 0 2.5 
C 0.663008 2.5 1.29895 2.236584 1.767767 1.767767 
C 2.236584 1.29895 2.5 0.663008 2.5 -0 
C 2.5 -0.663008 2.236584 -1.29895 1.767767 -1.767767 
C 1.29895 -2.236584 0.663008 -2.5 0 -2.5 
C -0.663008 -2.5 -1.29895 -2.236584 -1.767767 -1.767767 
C -2.236584 -1.29895 -2.5 -0.663008 -2.5 0 
C -2.5 0.663008 -2.236584 1.29895 -1.767767 1.767767 
C -1.29895 2.236584 -0.663008 2.5 0 2.5 
z
" id="C2_0_cf25baff8b"/>
    </defs>
    <g clip-path="url(#pab3e824751)">
     <use style="fill:#00cccc;" x="174.387333" xlink:href="#C2_0_cf25baff8b" y="136.546359"/>
    </g>
    <g clip-path="url(#pab3e824751)">
     <use style="fill:#00cccc;" x="175.324354" xlink:href="#C2_0_cf25baff8b" y="138.531788"/>
    </g>
    <g clip-path="url(#pab3e824751)">
     <use style="fill:#00cccc;" x="169.676159" xlink:href="#C2_0_cf25baff8b" y="121.981313"/>
    </g>
    <g clip-path="url(#pab3e824751)">
     <use style="fill:#00cccc;" x="174.374186" xlink:href="#C2_0_cf25baff8b" y="182.697779"/>
    </g>
    <g clip-path="url(#pab3e824751)">
     <use style="fill:#00cccc;" x="174.13954" xlink:href="#C2_0_cf25baff8b" y="135.196581"/>
    </g>
    <g clip-path="url(#pab3e824751)">
     <use style="fill:#00cccc;" x="177.267745" xlink:href="#C2_0_cf25baff8b" y="122.012703"/>
    </g>
    <g clip-path="url(#pab3e824751)">
     <use style="fill:#00cccc;" x="177.640931" xlink:href="#C2_0_cf25baff8b" y="139.630445"/>
    </g>
    <g clip-path="url(#pab3e824751)">
     <use style="fill:#00cccc;" x="176.863462" xlink:href="#C2_0_cf25baff8b" y="129.350159"/>
    </g>
    <g clip-path="url(#pab3e824751)">
     <use style="fill:#00cccc;" x="170.44542" xlink:href="#C2_0_cf25baff8b" y="137.268333"/>
    </g>
    <g clip-path="url(#pab3e824751)">
     <use style="fill:#00cccc;" x="177.652627" xlink:href="#C2_0_cf25baff8b" y="155.427556"/>
    </g>
    <g clip-path="url(#pab3e824751)">
     <use style="fill:#00cccc;" x="176.330154" xlink:href="#C2_0_cf25baff8b" y="176.796425"/>
    </g>
    <g clip-path="url(#pab3e824751)">
     <use style="fill:#00cccc;" x="176.139348" xlink:href="#C2_0_cf25baff8b" y="178.546427"/>
    </g>
    <g clip-path="url(#pab3e824751)">
     <use style="fill:#00cccc;" x="172.724146" xlink:href="#C2_0_cf25baff8b" y="178.311001"/>
    </g>
    <g clip-path="url(#pab3e824751)">
     <use style="fill:#00cccc;" x="172.982044" xlink:href="#C2_0_cf25baff8b" y="161.430929"/>
    </g>
    <g clip-path="url(#pab3e824751)">
     <use style="fill:#00cccc;" x="170.747771" xlink:href="#C2_0_cf25baff8b" y="162.145055"/>
    </g>
    <g clip-path="url(#pab3e824751)">
     <use style="fill:#00cccc;" x="172.693798" xlink:href="#C2_0_cf25baff8b" y="172.935432"/>
    </g>
    <g clip-path="url(#pab3e824751)">
     <use style="fill:#00cccc;" x="169.17793" xlink:href="#C2_0_cf25baff8b" y="137.393894"/>
    </g>
    <g clip-path="url(#pab3e824751)">
     <use style="fill:#00cccc;" x="175.95444" xlink:href="#C2_0_cf25baff8b" y="182.305402"/>
    </g>
    <g clip-path="url(#pab3e824751)">
     <use style="fill:#00cccc;" x="177.590219" xlink:href="#C2_0_cf25baff8b" y="155.192129"/>
    </g>
    <g clip-path="url(#pab3e824751)">
     <use style="fill:#00cccc;" x="174.339377" xlink:href="#C2_0_cf25baff8b" y="32.613455"/>
    </g>
    <g clip-path="url(#pab3e824751)">
     <use style="fill:#00cccc;" x="177.146724" xlink:href="#C2_0_cf25baff8b" y="95.503691"/>
    </g>
    <g clip-path="url(#pab3e824751)">
     <use style="fill:#00cccc;" x="176.663468" xlink:href="#C2_0_cf25baff8b" y="120.929742"/>
    </g>
    <g clip-path="url(#pab3e824751)">
     <use style="fill:#00cccc;" x="175.017049" xlink:href="#C2_0_cf25baff8b" y="139.355781"/>
    </g>
    <g clip-path="url(#pab3e824751)">
     <use style="fill:#00cccc;" x="173.843219" xlink:href="#C2_0_cf25baff8b" y="59.609014"/>
    </g>
    <g clip-path="url(#pab3e824751)">
     <use style="fill:#00cccc;" x="169.45288" xlink:href="#C2_0_cf25baff8b" y="145.006014"/>
    </g>
    <g clip-path="url(#pab3e824751)">
     <use style="fill:#00cccc;" x="174.895012" xlink:href="#C2_0_cf25baff8b" y="181.489257"/>
    </g>
    <g clip-path="url(#pab3e824751)">
     <use style="fill:#00cccc;" x="171.591023" xlink:href="#C2_0_cf25baff8b" y="167.685423"/>
    </g>
    <g clip-path="url(#pab3e824751)">
     <use style="fill:#00cccc;" x="176.32648" xlink:href="#C2_0_cf25baff8b" y="173.908527"/>
    </g>
    <g clip-path="url(#pab3e824751)">
     <use style="fill:#00cccc;" x="172.829065" xlink:href="#C2_0_cf25baff8b" y="173.8379"/>
    </g>
    <g clip-path="url(#pab3e824751)">
     <use style="fill:#00cccc;" x="172.201667" xlink:href="#C2_0_cf25baff8b" y="164.287436"/>
    </g>
    <g clip-path="url(#pab3e824751)">
     <use style="fill:#00cccc;" x="171.116837" xlink:href="#C2_0_cf25baff8b" y="169.396188"/>
    </g>
    <g clip-path="url(#pab3e824751)">
     <use style="fill:#00cccc;" x="173.693319" xlink:href="#C2_0_cf25baff8b" y="182.321097"/>
    </g>
    <g clip-path="url(#pab3e824751)">
     <use style="fill:#00cccc;" x="175.143152" xlink:href="#C2_0_cf25baff8b" y="142.526189"/>
    </g>
    <g clip-path="url(#pab3e824751)">
     <use style="fill:#00cccc;" x="171.295708" xlink:href="#C2_0_cf25baff8b" y="162.921963"/>
    </g>
    <g clip-path="url(#pab3e824751)">
     <use style="fill:#00cccc;" x="172.301595" xlink:href="#C2_0_cf25baff8b" y="182.658542"/>
    </g>
    <g clip-path="url(#pab3e824751)">
     <use style="fill:#00cccc;" x="173.794525" xlink:href="#C2_0_cf25baff8b" y="179.778492"/>
    </g>
    <g clip-path="url(#pab3e824751)">
     <use style="fill:#00cccc;" x="177.439844" xlink:href="#C2_0_cf25baff8b" y="111.795198"/>
    </g>
    <g clip-path="url(#pab3e824751)">
     <use style="fill:#00cccc;" x="173.024964" xlink:href="#C2_0_cf25baff8b" y="158.307605"/>
    </g>
    <g clip-path="url(#pab3e824751)">
     <use style="fill:#00cccc;" x="176.78372" xlink:href="#C2_0_cf25baff8b" y="186.527382"/>
    </g>
    <g clip-path="url(#pab3e824751)">
     <use style="fill:#00cccc;" x="169.304805" xlink:href="#C2_0_cf25baff8b" y="168.776232"/>
    </g>
    <g clip-path="url(#pab3e824751)">
     <use style="fill:#00cccc;" x="173.919266" xlink:href="#C2_0_cf25baff8b" y="150.248175"/>
    </g>
    <g clip-path="url(#pab3e824751)">
     <use style="fill:#00cccc;" x="177.977155" xlink:href="#C2_0_cf25baff8b" y="66.444227"/>
    </g>
    <g clip-path="url(#pab3e824751)">
     <use style="fill:#00cccc;" x="175.687039" xlink:href="#C2_0_cf25baff8b" y="182.839035"/>
    </g>
    <g clip-path="url(#pab3e824751)">
     <use style="fill:#00cccc;" x="177.838219" xlink:href="#C2_0_cf25baff8b" y="131.437606"/>
    </g>
    <g clip-path="url(#pab3e824751)">
     <use style="fill:#00cccc;" x="168.891784" xlink:href="#C2_0_cf25baff8b" y="112.697666"/>
    </g>
    <g clip-path="url(#pab3e824751)">
     <use style="fill:#00cccc;" x="169.048498" xlink:href="#C2_0_cf25baff8b" y="136.609139"/>
    </g>
    <g clip-path="url(#pab3e824751)">
     <use style="fill:#00cccc;" x="170.18626" xlink:href="#C2_0_cf25baff8b" y="187.131643"/>
    </g>
    <g clip-path="url(#pab3e824751)">
     <use style="fill:#00cccc;" x="172.473138" xlink:href="#C2_0_cf25baff8b" y="187.359222"/>
    </g>
    <g clip-path="url(#pab3e824751)">
     <use style="fill:#00cccc;" x="177.082835" xlink:href="#C2_0_cf25baff8b" y="155.639439"/>
    </g>
    <g clip-path="url(#pab3e824751)">
     <use style="fill:#00cccc;" x="172.076034" xlink:href="#C2_0_cf25baff8b" y="184.596886"/>
    </g>
    <g clip-path="url(#pab3e824751)">
     <use style="fill:#00cccc;" x="172.012084" xlink:href="#C2_0_cf25baff8b" y="183.851369"/>
    </g>
   </g>
   <g id="PathCollection_4">
    <defs>
     <path d="M 0 2.5 
C 0.663008 2.5 1.29895 2.236584 1.767767 1.767767 
C 2.236584 1.29895 2.5 0.663008 2.5 -0 
C 2.5 -0.663008 2.236584 -1.29895 1.767767 -1.767767 
C 1.29895 -2.236584 0.663008 -2.5 0 -2.5 
C -0.663008 -2.5 -1.29895 -2.236584 -1.767767 -1.767767 
C -2.236584 -1.29895 -2.5 -0.663008 -2.5 0 
C -2.5 0.663008 -2.236584 1.29895 -1.767767 1.767767 
C -1.29895 2.236584 -0.663008 2.5 0 2.5 
z
" id="C3_0_5c5c3dda2d"/>
    </defs>
    <g clip-path="url(#pab3e824751)">
     <use style="fill:#ff0080;" x="217.034988" xlink:href="#C3_0_5c5c3dda2d" y="82.876989"/>
    </g>
    <g clip-path="url(#pab3e824751)">
     <use style="fill:#ff0080;" x="223.657298" xlink:href="#C3_0_5c5c3dda2d" y="94.475663"/>
    </g>
   </g>
   <g id="text_17">
    <!-- nerve = right_T2 -->
    <g transform="translate(154.2835 18.72)scale(0.1 -0.1)">
     <defs>
      <path d="M 9.421875 54.6875 
L 18.40625 54.6875 
L 18.40625 0 
L 9.421875 0 
z
M 9.421875 75.984375 
L 18.40625 75.984375 
L 18.40625 64.59375 
L 9.421875 64.59375 
z
" id="DejaVuSans-105"/>
      <path d="M 45.40625 27.984375 
Q 45.40625 37.75 41.375 43.109375 
Q 37.359375 48.484375 30.078125 48.484375 
Q 22.859375 48.484375 18.828125 43.109375 
Q 14.796875 37.75 14.796875 27.984375 
Q 14.796875 18.265625 18.828125 12.890625 
Q 22.859375 7.515625 30.078125 7.515625 
Q 37.359375 7.515625 41.375 12.890625 
Q 45.40625 18.265625 45.40625 27.984375 
z
M 54.390625 6.78125 
Q 54.390625 -7.171875 48.1875 -13.984375 
Q 42 -20.796875 29.203125 -20.796875 
Q 24.46875 -20.796875 20.265625 -20.09375 
Q 16.0625 -19.390625 12.109375 -17.921875 
L 12.109375 -9.1875 
Q 16.0625 -11.328125 19.921875 -12.34375 
Q 23.78125 -13.375 27.78125 -13.375 
Q 36.625 -13.375 41.015625 -8.765625 
Q 45.40625 -4.15625 45.40625 5.171875 
L 45.40625 9.625 
Q 42.625 4.78125 38.28125 2.390625 
Q 33.9375 0 27.875 0 
Q 17.828125 0 11.671875 7.65625 
Q 5.515625 15.328125 5.515625 27.984375 
Q 5.515625 40.671875 11.671875 48.328125 
Q 17.828125 56 27.875 56 
Q 33.9375 56 38.28125 53.609375 
Q 42.625 51.21875 45.40625 46.390625 
L 45.40625 54.6875 
L 54.390625 54.6875 
z
" id="DejaVuSans-103"/>
      <path d="M 54.890625 33.015625 
L 54.890625 0 
L 45.90625 0 
L 45.90625 32.71875 
Q 45.90625 40.484375 42.875 44.328125 
Q 39.84375 48.1875 33.796875 48.1875 
Q 26.515625 48.1875 22.3125 43.546875 
Q 18.109375 38.921875 18.109375 30.90625 
L 18.109375 0 
L 9.078125 0 
L 9.078125 75.984375 
L 18.109375 75.984375 
L 18.109375 46.1875 
Q 21.34375 51.125 25.703125 53.5625 
Q 30.078125 56 35.796875 56 
Q 45.21875 56 50.046875 50.171875 
Q 54.890625 44.34375 54.890625 33.015625 
z
" id="DejaVuSans-104"/>
     </defs>
     <use xlink:href="#DejaVuSans-110"/>
     <use x="63.378906" xlink:href="#DejaVuSans-101"/>
     <use x="124.902344" xlink:href="#DejaVuSans-114"/>
     <use x="166.015625" xlink:href="#DejaVuSans-118"/>
     <use x="225.195312" xlink:href="#DejaVuSans-101"/>
     <use x="286.71875" xlink:href="#DejaVuSans-32"/>
     <use x="318.505859" xlink:href="#DejaVuSans-61"/>
     <use x="402.294922" xlink:href="#DejaVuSans-32"/>
     <use x="434.082031" xlink:href="#DejaVuSans-114"/>
     <use x="475.195312" xlink:href="#DejaVuSans-105"/>
     <use x="502.978516" xlink:href="#DejaVuSans-103"/>
     <use x="566.455078" xlink:href="#DejaVuSans-104"/>
     <use x="629.833984" xlink:href="#DejaVuSans-116"/>
     <use x="669.042969" xlink:href="#DejaVuSans-95"/>
     <use x="719.042969" xlink:href="#DejaVuSans-84"/>
     <use x="780.126953" xlink:href="#DejaVuSans-50"/>
    </g>
   </g>
  </g>
  <g id="axes_3">
   <g id="patch_8">
    <path d="M 256.914 198.376 
L 349.2 198.376 
L 349.2 24.72 
L 256.914 24.72 
z
" style="fill:#ffffff;"/>
   </g>
   <g id="matplotlib.axis_5">
    <g id="xtick_5">
     <g id="line2d_21">
      <g>
       <use style="stroke:#000000;stroke-width:0.8;" x="279.9855" xlink:href="#m8f12fc4547" y="198.376"/>
      </g>
     </g>
     <g id="text_18">
      <!-- Motor -->
      <g transform="translate(265.537062 212.974438)scale(0.1 -0.1)">
       <use xlink:href="#DejaVuSans-77"/>
       <use x="86.279297" xlink:href="#DejaVuSans-111"/>
       <use x="147.460938" xlink:href="#DejaVuSans-116"/>
       <use x="186.669922" xlink:href="#DejaVuSans-111"/>
       <use x="247.851562" xlink:href="#DejaVuSans-114"/>
      </g>
      <!-- neurons -->
      <g transform="translate(259.795656 224.17225)scale(0.1 -0.1)">
       <use xlink:href="#DejaVuSans-110"/>
       <use x="63.378906" xlink:href="#DejaVuSans-101"/>
       <use x="124.902344" xlink:href="#DejaVuSans-117"/>
       <use x="188.28125" xlink:href="#DejaVuSans-114"/>
       <use x="227.144531" xlink:href="#DejaVuSans-111"/>
       <use x="288.326172" xlink:href="#DejaVuSans-110"/>
       <use x="351.705078" xlink:href="#DejaVuSans-115"/>
      </g>
     </g>
    </g>
    <g id="xtick_6">
     <g id="line2d_22">
      <g>
       <use style="stroke:#000000;stroke-width:0.8;" x="326.1285" xlink:href="#m8f12fc4547" y="198.376"/>
      </g>
     </g>
     <g id="text_19">
      <!-- bCS -->
      <g transform="translate(316.288656 212.974438)scale(0.1 -0.1)">
       <use xlink:href="#DejaVuSans-98"/>
       <use x="63.476562" xlink:href="#DejaVuSans-67"/>
       <use x="133.300781" xlink:href="#DejaVuSans-83"/>
      </g>
      <!-- neurons -->
      <g transform="translate(305.938656 224.17225)scale(0.1 -0.1)">
       <use xlink:href="#DejaVuSans-110"/>
       <use x="63.378906" xlink:href="#DejaVuSans-101"/>
       <use x="124.902344" xlink:href="#DejaVuSans-117"/>
       <use x="188.28125" xlink:href="#DejaVuSans-114"/>
       <use x="227.144531" xlink:href="#DejaVuSans-111"/>
       <use x="288.326172" xlink:href="#DejaVuSans-110"/>
       <use x="351.705078" xlink:href="#DejaVuSans-115"/>
      </g>
     </g>
    </g>
    <g id="text_20">
     <!-- type -->
     <g transform="translate(291.886687 237.850375)scale(0.1 -0.1)">
      <use xlink:href="#DejaVuSans-116"/>
      <use x="39.208984" xlink:href="#DejaVuSans-121"/>
      <use x="98.388672" xlink:href="#DejaVuSans-112"/>
      <use x="161.865234" xlink:href="#DejaVuSans-101"/>
     </g>
    </g>
   </g>
   <g id="matplotlib.axis_6">
    <g id="ytick_17">
     <g id="line2d_23">
      <g>
       <use style="stroke:#000000;stroke-width:0.8;" x="256.914" xlink:href="#me6cd0af478" y="191.494879"/>
      </g>
     </g>
    </g>
    <g id="ytick_18">
     <g id="line2d_24">
      <g>
       <use style="stroke:#000000;stroke-width:0.8;" x="256.914" xlink:href="#me6cd0af478" y="167.95224"/>
      </g>
     </g>
    </g>
    <g id="ytick_19">
     <g id="line2d_25">
      <g>
       <use style="stroke:#000000;stroke-width:0.8;" x="256.914" xlink:href="#me6cd0af478" y="144.409601"/>
      </g>
     </g>
    </g>
    <g id="ytick_20">
     <g id="line2d_26">
      <g>
       <use style="stroke:#000000;stroke-width:0.8;" x="256.914" xlink:href="#me6cd0af478" y="120.866961"/>
      </g>
     </g>
    </g>
    <g id="ytick_21">
     <g id="line2d_27">
      <g>
       <use style="stroke:#000000;stroke-width:0.8;" x="256.914" xlink:href="#me6cd0af478" y="97.324322"/>
      </g>
     </g>
    </g>
    <g id="ytick_22">
     <g id="line2d_28">
      <g>
       <use style="stroke:#000000;stroke-width:0.8;" x="256.914" xlink:href="#me6cd0af478" y="73.781683"/>
      </g>
     </g>
    </g>
    <g id="ytick_23">
     <g id="line2d_29">
      <g>
       <use style="stroke:#000000;stroke-width:0.8;" x="256.914" xlink:href="#me6cd0af478" y="50.239044"/>
      </g>
     </g>
    </g>
    <g id="ytick_24">
     <g id="line2d_30">
      <g>
       <use style="stroke:#000000;stroke-width:0.8;" x="256.914" xlink:href="#me6cd0af478" y="26.696405"/>
      </g>
     </g>
    </g>
   </g>
   <g id="patch_9">
    <path d="M 256.914 198.376 
L 256.914 24.72 
" style="fill:none;stroke:#000000;stroke-linecap:square;stroke-linejoin:miter;stroke-width:0.8;"/>
   </g>
   <g id="patch_10">
    <path d="M 256.914 198.376 
L 349.2 198.376 
" style="fill:none;stroke:#000000;stroke-linecap:square;stroke-linejoin:miter;stroke-width:0.8;"/>
   </g>
   <g id="PathCollection_5">
    <defs>
     <path d="M 0 2.5 
C 0.663008 2.5 1.29895 2.236584 1.767767 1.767767 
C 2.236584 1.29895 2.5 0.663008 2.5 -0 
C 2.5 -0.663008 2.236584 -1.29895 1.767767 -1.767767 
C 1.29895 -2.236584 0.663008 -2.5 0 -2.5 
C -0.663008 -2.5 -1.29895 -2.236584 -1.767767 -1.767767 
C -2.236584 -1.29895 -2.5 -0.663008 -2.5 0 
C -2.5 0.663008 -2.236584 1.29895 -1.767767 1.767767 
C -1.29895 2.236584 -0.663008 2.5 0 2.5 
z
" id="C4_0_658c6c84bb"/>
    </defs>
    <g clip-path="url(#p36b2cc9e38)">
     <use style="fill:#00cccc;" x="282.797383" xlink:href="#C4_0_658c6c84bb" y="173.523998"/>
    </g>
    <g clip-path="url(#p36b2cc9e38)">
     <use style="fill:#00cccc;" x="283.114567" xlink:href="#C4_0_658c6c84bb" y="152.75939"/>
    </g>
    <g clip-path="url(#p36b2cc9e38)">
     <use style="fill:#00cccc;" x="277.932362" xlink:href="#C4_0_658c6c84bb" y="177.126021"/>
    </g>
    <g clip-path="url(#p36b2cc9e38)">
     <use style="fill:#00cccc;" x="282.925981" xlink:href="#C4_0_658c6c84bb" y="178.381629"/>
    </g>
    <g clip-path="url(#p36b2cc9e38)">
     <use style="fill:#00cccc;" x="282.457914" xlink:href="#C4_0_658c6c84bb" y="162.51389"/>
    </g>
    <g clip-path="url(#p36b2cc9e38)">
     <use style="fill:#00cccc;" x="281.960651" xlink:href="#C4_0_658c6c84bb" y="173.319961"/>
    </g>
    <g clip-path="url(#p36b2cc9e38)">
     <use style="fill:#00cccc;" x="276.7435" xlink:href="#C4_0_658c6c84bb" y="173.743729"/>
    </g>
    <g clip-path="url(#p36b2cc9e38)">
     <use style="fill:#00cccc;" x="282.512999" xlink:href="#C4_0_658c6c84bb" y="187.767294"/>
    </g>
    <g clip-path="url(#p36b2cc9e38)">
     <use style="fill:#00cccc;" x="283.233038" xlink:href="#C4_0_658c6c84bb" y="188.277385"/>
    </g>
    <g clip-path="url(#p36b2cc9e38)">
     <use style="fill:#00cccc;" x="277.845024" xlink:href="#C4_0_658c6c84bb" y="185.216842"/>
    </g>
    <g clip-path="url(#p36b2cc9e38)">
     <use style="fill:#00cccc;" x="281.581315" xlink:href="#C4_0_658c6c84bb" y="147.634942"/>
    </g>
    <g clip-path="url(#p36b2cc9e38)">
     <use style="fill:#00cccc;" x="281.966036" xlink:href="#C4_0_658c6c84bb" y="186.692181"/>
    </g>
    <g clip-path="url(#p36b2cc9e38)">
     <use style="fill:#00cccc;" x="283.507091" xlink:href="#C4_0_658c6c84bb" y="187.947788"/>
    </g>
    <g clip-path="url(#p36b2cc9e38)">
     <use style="fill:#00cccc;" x="281.79046" xlink:href="#C4_0_658c6c84bb" y="184.557648"/>
    </g>
    <g clip-path="url(#p36b2cc9e38)">
     <use style="fill:#00cccc;" x="277.593254" xlink:href="#C4_0_658c6c84bb" y="177.714587"/>
    </g>
    <g clip-path="url(#p36b2cc9e38)">
     <use style="fill:#00cccc;" x="279.074619" xlink:href="#C4_0_658c6c84bb" y="184.942178"/>
    </g>
    <g clip-path="url(#p36b2cc9e38)">
     <use style="fill:#00cccc;" x="279.174515" xlink:href="#C4_0_658c6c84bb" y="186.856979"/>
    </g>
    <g clip-path="url(#p36b2cc9e38)">
     <use style="fill:#00cccc;" x="282.597319" xlink:href="#C4_0_658c6c84bb" y="176.93768"/>
    </g>
    <g clip-path="url(#p36b2cc9e38)">
     <use style="fill:#00cccc;" x="277.637435" xlink:href="#C4_0_658c6c84bb" y="177.188802"/>
    </g>
    <g clip-path="url(#p36b2cc9e38)">
     <use style="fill:#00cccc;" x="282.162034" xlink:href="#C4_0_658c6c84bb" y="185.004958"/>
    </g>
    <g clip-path="url(#p36b2cc9e38)">
     <use style="fill:#00cccc;" x="283.688826" xlink:href="#C4_0_658c6c84bb" y="182.328945"/>
    </g>
    <g clip-path="url(#p36b2cc9e38)">
     <use style="fill:#00cccc;" x="278.356572" xlink:href="#C4_0_658c6c84bb" y="186.98254"/>
    </g>
    <g clip-path="url(#p36b2cc9e38)">
     <use style="fill:#00cccc;" x="282.159345" xlink:href="#C4_0_658c6c84bb" y="172.700005"/>
    </g>
    <g clip-path="url(#p36b2cc9e38)">
     <use style="fill:#00cccc;" x="282.752833" xlink:href="#C4_0_658c6c84bb" y="62.543997"/>
    </g>
    <g clip-path="url(#p36b2cc9e38)">
     <use style="fill:#00cccc;" x="279.265809" xlink:href="#C4_0_658c6c84bb" y="118.779514"/>
    </g>
    <g clip-path="url(#p36b2cc9e38)">
     <use style="fill:#00cccc;" x="275.893036" xlink:href="#C4_0_658c6c84bb" y="121.965618"/>
    </g>
    <g clip-path="url(#p36b2cc9e38)">
     <use style="fill:#00cccc;" x="282.830984" xlink:href="#C4_0_658c6c84bb" y="155.70222"/>
    </g>
    <g clip-path="url(#p36b2cc9e38)">
     <use style="fill:#00cccc;" x="282.667715" xlink:href="#C4_0_658c6c84bb" y="166.241475"/>
    </g>
    <g clip-path="url(#p36b2cc9e38)">
     <use style="fill:#00cccc;" x="282.443563" xlink:href="#C4_0_658c6c84bb" y="99.105715"/>
    </g>
    <g clip-path="url(#p36b2cc9e38)">
     <use style="fill:#00cccc;" x="282.558373" xlink:href="#C4_0_658c6c84bb" y="150.954454"/>
    </g>
    <g clip-path="url(#p36b2cc9e38)">
     <use style="fill:#00cccc;" x="277.831289" xlink:href="#C4_0_658c6c84bb" y="148.576648"/>
    </g>
    <g clip-path="url(#p36b2cc9e38)">
     <use style="fill:#00cccc;" x="276.447284" xlink:href="#C4_0_658c6c84bb" y="166.092371"/>
    </g>
    <g clip-path="url(#p36b2cc9e38)">
     <use style="fill:#00cccc;" x="280.386369" xlink:href="#C4_0_658c6c84bb" y="160.654022"/>
    </g>
    <g clip-path="url(#p36b2cc9e38)">
     <use style="fill:#00cccc;" x="279.478858" xlink:href="#C4_0_658c6c84bb" y="165.401787"/>
    </g>
    <g clip-path="url(#p36b2cc9e38)">
     <use style="fill:#00cccc;" x="276.049176" xlink:href="#C4_0_658c6c84bb" y="174.685435"/>
    </g>
    <g clip-path="url(#p36b2cc9e38)">
     <use style="fill:#00cccc;" x="275.810239" xlink:href="#C4_0_658c6c84bb" y="153.661858"/>
    </g>
    <g clip-path="url(#p36b2cc9e38)">
     <use style="fill:#00cccc;" x="277.010246" xlink:href="#C4_0_658c6c84bb" y="163.573309"/>
    </g>
    <g clip-path="url(#p36b2cc9e38)">
     <use style="fill:#00cccc;" x="277.958189" xlink:href="#C4_0_658c6c84bb" y="154.8076"/>
    </g>
    <g clip-path="url(#p36b2cc9e38)">
     <use style="fill:#00cccc;" x="277.854242" xlink:href="#C4_0_658c6c84bb" y="170.337894"/>
    </g>
    <g clip-path="url(#p36b2cc9e38)">
     <use style="fill:#00cccc;" x="282.526063" xlink:href="#C4_0_658c6c84bb" y="164.467929"/>
    </g>
    <g clip-path="url(#p36b2cc9e38)">
     <use style="fill:#00cccc;" x="276.618825" xlink:href="#C4_0_658c6c84bb" y="153.418584"/>
    </g>
    <g clip-path="url(#p36b2cc9e38)">
     <use style="fill:#00cccc;" x="282.908661" xlink:href="#C4_0_658c6c84bb" y="153.55984"/>
    </g>
    <g clip-path="url(#p36b2cc9e38)">
     <use style="fill:#00cccc;" x="275.733168" xlink:href="#C4_0_658c6c84bb" y="141.78852"/>
    </g>
    <g clip-path="url(#p36b2cc9e38)">
     <use style="fill:#00cccc;" x="276.147941" xlink:href="#C4_0_658c6c84bb" y="169.458969"/>
    </g>
    <g clip-path="url(#p36b2cc9e38)">
     <use style="fill:#00cccc;" x="281.389033" xlink:href="#C4_0_658c6c84bb" y="169.349103"/>
    </g>
    <g clip-path="url(#p36b2cc9e38)">
     <use style="fill:#00cccc;" x="277.45419" xlink:href="#C4_0_658c6c84bb" y="161.101332"/>
    </g>
    <g clip-path="url(#p36b2cc9e38)">
     <use style="fill:#00cccc;" x="277.662058" xlink:href="#C4_0_658c6c84bb" y="162.231378"/>
    </g>
    <g clip-path="url(#p36b2cc9e38)">
     <use style="fill:#00cccc;" x="280.031518" xlink:href="#C4_0_658c6c84bb" y="166.178694"/>
    </g>
    <g clip-path="url(#p36b2cc9e38)">
     <use style="fill:#00cccc;" x="281.681142" xlink:href="#C4_0_658c6c84bb" y="156.479127"/>
    </g>
    <g clip-path="url(#p36b2cc9e38)">
     <use style="fill:#00cccc;" x="278.55167" xlink:href="#C4_0_658c6c84bb" y="154.540783"/>
    </g>
    <g clip-path="url(#p36b2cc9e38)">
     <use style="fill:#00cccc;" x="277.155662" xlink:href="#C4_0_658c6c84bb" y="163.549766"/>
    </g>
    <g clip-path="url(#p36b2cc9e38)">
     <use style="fill:#00cccc;" x="282.263515" xlink:href="#C4_0_658c6c84bb" y="179.244859"/>
    </g>
    <g clip-path="url(#p36b2cc9e38)">
     <use style="fill:#00cccc;" x="283.705596" xlink:href="#C4_0_658c6c84bb" y="163.290797"/>
    </g>
    <g clip-path="url(#p36b2cc9e38)">
     <use style="fill:#00cccc;" x="281.934681" xlink:href="#C4_0_658c6c84bb" y="176.341267"/>
    </g>
    <g clip-path="url(#p36b2cc9e38)">
     <use style="fill:#00cccc;" x="276.90457" xlink:href="#C4_0_658c6c84bb" y="183.105852"/>
    </g>
    <g clip-path="url(#p36b2cc9e38)">
     <use style="fill:#00cccc;" x="280.085667" xlink:href="#C4_0_658c6c84bb" y="172.166372"/>
    </g>
    <g clip-path="url(#p36b2cc9e38)">
     <use style="fill:#00cccc;" x="281.376069" xlink:href="#C4_0_658c6c84bb" y="176.019517"/>
    </g>
    <g clip-path="url(#p36b2cc9e38)">
     <use style="fill:#00cccc;" x="283.553447" xlink:href="#C4_0_658c6c84bb" y="174.332295"/>
    </g>
    <g clip-path="url(#p36b2cc9e38)">
     <use style="fill:#00cccc;" x="281.752959" xlink:href="#C4_0_658c6c84bb" y="181.497105"/>
    </g>
    <g clip-path="url(#p36b2cc9e38)">
     <use style="fill:#00cccc;" x="281.736153" xlink:href="#C4_0_658c6c84bb" y="157.899533"/>
    </g>
    <g clip-path="url(#p36b2cc9e38)">
     <use style="fill:#00cccc;" x="279.502475" xlink:href="#C4_0_658c6c84bb" y="186.605858"/>
    </g>
   </g>
   <g id="PathCollection_6">
    <defs>
     <path d="M 0 2.5 
C 0.663008 2.5 1.29895 2.236584 1.767767 1.767767 
C 2.236584 1.29895 2.5 0.663008 2.5 -0 
C 2.5 -0.663008 2.236584 -1.29895 1.767767 -1.767767 
C 1.29895 -2.236584 0.663008 -2.5 0 -2.5 
C -0.663008 -2.5 -1.29895 -2.236584 -1.767767 -1.767767 
C -2.236584 -1.29895 -2.5 -0.663008 -2.5 0 
C -2.5 0.663008 -2.236584 1.29895 -1.767767 1.767767 
C -1.29895 2.236584 -0.663008 2.5 0 2.5 
z
" id="C5_0_025ecd5969"/>
    </defs>
    <g clip-path="url(#p36b2cc9e38)">
     <use style="fill:#ff0080;" x="326.272437" xlink:href="#C5_0_025ecd5969" y="98.760423"/>
    </g>
    <g clip-path="url(#p36b2cc9e38)">
     <use style="fill:#ff0080;" x="327.05641" xlink:href="#C5_0_025ecd5969" y="114.76157"/>
    </g>
   </g>
   <g id="text_21">
    <!-- nerve = right_T3 -->
    <g transform="translate(260.8695 18.72)scale(0.1 -0.1)">
     <use xlink:href="#DejaVuSans-110"/>
     <use x="63.378906" xlink:href="#DejaVuSans-101"/>
     <use x="124.902344" xlink:href="#DejaVuSans-114"/>
     <use x="166.015625" xlink:href="#DejaVuSans-118"/>
     <use x="225.195312" xlink:href="#DejaVuSans-101"/>
     <use x="286.71875" xlink:href="#DejaVuSans-32"/>
     <use x="318.505859" xlink:href="#DejaVuSans-61"/>
     <use x="402.294922" xlink:href="#DejaVuSans-32"/>
     <use x="434.082031" xlink:href="#DejaVuSans-114"/>
     <use x="475.195312" xlink:href="#DejaVuSans-105"/>
     <use x="502.978516" xlink:href="#DejaVuSans-103"/>
     <use x="566.455078" xlink:href="#DejaVuSans-104"/>
     <use x="629.833984" xlink:href="#DejaVuSans-116"/>
     <use x="669.042969" xlink:href="#DejaVuSans-95"/>
     <use x="719.042969" xlink:href="#DejaVuSans-84"/>
     <use x="780.126953" xlink:href="#DejaVuSans-51"/>
    </g>
   </g>
  </g>
 </g>
 <defs>
  <clipPath id="p1936f90bb5">
   <rect height="173.656" width="92.286" x="43.742" y="24.72"/>
  </clipPath>
  <clipPath id="pab3e824751">
   <rect height="173.656" width="92.286" x="150.328" y="24.72"/>
  </clipPath>
  <clipPath id="p36b2cc9e38">
   <rect height="173.656" width="92.286" x="256.914" y="24.72"/>
  </clipPath>
 </defs>
</svg>
